<svg width="75" height="75" viewBox="0 0 75 75" fill="none" xmlns="http://www.w3.org/2000/svg">
<g clip-path="url(#clip0)">
<path d="M49.4729 5.63719C49.6829 5.63719 49.8964 5.59178 50.0988 5.49598L55.8151 2.78938C56.5463 2.44309 56.8583 1.56975 56.5122 0.838651C56.166 0.107401 55.2924 -0.204757 54.5614 0.141532L48.8452 2.84827C48.1139 3.19456 47.8019 4.0679 48.1481 4.799C48.3983 5.32752 48.9243 5.63719 49.4729 5.63719Z" fill="#FBFBFB"/>
<path d="M55.8149 23.2642L51.7951 21.3608C51.0644 21.0149 50.1906 21.3268 49.8443 22.0579C49.4982 22.7892 49.8102 23.6625 50.5415 24.0086L54.5613 25.9121C54.7637 26.0079 54.977 26.0533 55.1871 26.0533C55.7357 26.0533 56.2617 25.7436 56.512 25.2149C56.8582 24.4838 56.546 23.6104 55.8149 23.2642Z" fill="#FBFBFB"/>
<path d="M46.3362 18.7761L38.4005 15.0185V11.0349L42.9215 8.89405C43.6528 8.54776 43.9648 7.67443 43.6186 6.94318C43.2725 6.21208 42.3989 5.89978 41.6679 6.24621L37.1322 8.39395C36.6778 8.08898 36.1319 7.91056 35.5448 7.91056H11.9085C5.34235 7.91056 0.000244141 13.2525 0.000244141 19.8188V21.7913C0.000244141 22.3316 0.297459 22.8279 0.773677 23.0827C0.99018 23.1988 1.22792 23.2562 1.46493 23.2562C1.74911 23.2562 2.03226 23.1736 2.27733 23.0104C3.98342 21.8737 5.96872 21.2728 8.01875 21.2728H8.35977V25.7937C6.18287 31.3378 4.83772 37.1572 4.36443 43.0965C4.30027 43.9029 4.90188 44.6088 5.70841 44.6731C5.74811 44.6763 5.78722 44.6778 5.82633 44.6778C6.58248 44.6778 7.22393 44.0961 7.28502 43.3293C7.71743 37.9001 8.91523 32.5762 10.845 27.4888H21.9221V31.2991C21.9221 36.2109 25.0406 40.59 29.6822 42.1964C33.1446 43.3946 35.4709 46.6612 35.4709 50.325V67.2758C35.4709 69.9195 33.32 72.0705 30.6764 72.0705H11.8976C9.2539 72.0705 7.10308 69.9195 7.10308 67.2758V56.3932C7.10308 55.5842 6.44713 54.9284 5.63825 54.9284C4.82937 54.9284 4.17341 55.5842 4.17341 56.3932V67.2758C4.17341 71.5351 7.63848 75.0002 11.8976 75.0002H30.6761C34.9352 75.0002 38.4005 71.5351 38.4005 67.2758V50.3247C38.4005 45.413 35.2818 41.0339 30.6402 39.4275C27.1779 38.2294 24.8516 34.9627 24.8516 31.299V26.6473C26.8003 28.8488 29.5536 30.3203 32.6561 30.6013C32.7005 30.6053 32.7447 30.6073 32.7887 30.6073C33.3556 30.6073 33.8772 30.2784 34.118 29.7564C34.3776 29.1939 34.2556 28.529 33.8127 28.0957C32.081 26.4006 31.1273 24.1332 31.1273 21.7115V18.143H35.5443C36.1314 18.143 36.6775 17.9646 37.1319 17.6596L45.0823 21.4241C45.2847 21.5199 45.4982 21.5653 45.7082 21.5653C46.2568 21.5653 46.7828 21.2556 47.0332 20.727C47.3795 19.9957 47.0674 19.1224 46.3362 18.7761ZM2.94207 19.3498C3.18655 14.6158 7.1148 10.8401 11.9085 10.8401H29.0591V15.2132H26.9595C26.6044 15.2132 26.2614 15.3423 25.9942 15.5762L22.8359 18.343H8.0189C6.26212 18.343 4.54255 18.6869 2.94207 19.3498ZM21.9221 21.2726V24.559H11.2896V21.2726H21.9221ZM24.9499 20.386L27.5104 18.1429H28.1977V21.7114C28.1977 23.3829 28.5398 24.9989 29.191 26.4816C27.0015 25.1871 25.4184 22.9836 24.9499 20.386ZM35.4708 15.2132H31.9889V10.8402H35.4708V15.2132Z" fill="#FBFBFB"/>
<path d="M73.5351 11.5619H71.9079C71.7355 10.7877 71.4298 10.0636 71.0158 9.41443L72.1682 8.26189C72.7402 7.68987 72.7402 6.76233 72.1682 6.19031C71.596 5.61829 70.6685 5.61829 70.0965 6.19031L68.9441 7.3427C68.2949 6.92874 67.5709 6.62288 66.7966 6.45046V4.82361C66.7966 4.01458 66.1407 3.35876 65.3318 3.35876C64.5229 3.35876 63.8669 4.01458 63.8669 4.82361V6.45076C63.0928 6.62317 62.3687 6.92888 61.7196 7.34299L60.5672 6.1906C59.9954 5.61858 59.0681 5.61858 58.4957 6.1906C57.9236 6.76262 57.9236 7.69016 58.4957 8.26218L59.648 9.41472C59.2341 10.0639 58.9282 10.7879 58.7558 11.5622H57.1287C56.3198 11.5622 55.6638 12.218 55.6638 13.027C55.6638 13.8361 56.3198 14.4919 57.1287 14.4919H58.7558C58.9282 15.266 59.2339 15.9901 59.648 16.6392L58.4957 17.7916C57.9236 18.3636 57.9236 19.2911 58.4957 19.8633C58.7817 20.1494 59.1566 20.2924 59.5314 20.2924C59.9064 20.2924 60.2812 20.1494 60.5672 19.8633L61.7196 18.7109C62.3687 19.1249 63.0928 19.4307 63.8669 19.603V21.2302C63.8669 22.0392 64.5229 22.695 65.3318 22.695C66.1407 22.695 66.7966 22.0392 66.7966 21.2302V19.603C67.5708 19.4306 68.2949 19.1249 68.9439 18.7108L70.0963 19.8632C70.3824 20.1492 70.7573 20.2922 71.1321 20.2922C71.507 20.2922 71.8818 20.1491 72.1679 19.8632C72.7399 19.2911 72.7399 18.3636 72.1679 17.7916L71.0155 16.639C71.4295 15.9898 71.7354 15.2659 71.9078 14.4916H73.5349C74.3438 14.4916 74.9998 13.8358 74.9998 13.0267C74.9999 12.2177 74.3441 11.5619 73.5351 11.5619ZM65.3319 16.8353C63.2318 16.8353 61.5233 15.1267 61.5233 13.0267C61.5233 10.9266 63.2318 9.21814 65.3319 9.21814C67.4321 9.21814 69.1405 10.9266 69.1405 13.0267C69.1405 15.1269 67.4321 16.8353 65.3319 16.8353Z" fill="#FBFBFB"/>
<path d="M68.3206 25.6913C65.8974 25.6913 63.926 27.6627 63.926 30.0858C63.926 32.509 65.8974 34.4803 68.3206 34.4803C70.7437 34.4803 72.7151 32.509 72.7151 30.0858C72.7151 27.6627 70.7437 25.6913 68.3206 25.6913ZM68.3206 31.5507C67.5128 31.5507 66.8557 30.8935 66.8557 30.0858C66.8557 29.2781 67.5128 28.621 68.3206 28.621C69.1283 28.621 69.7854 29.2781 69.7854 30.0858C69.7854 30.8937 69.1281 31.5507 68.3206 31.5507Z" fill="#FBFBFB"/>
<path d="M45.7092 14.4916H51.1681C51.977 14.4916 52.633 13.8358 52.633 13.0267C52.633 12.2177 51.977 11.5619 51.1681 11.5619H45.7092C44.9003 11.5619 44.2444 12.2177 44.2444 13.0267C44.2444 13.8358 44.9003 14.4916 45.7092 14.4916Z" fill="#FBFBFB"/>
<path d="M5.63867 51.2668C6.02393 51.2668 6.40186 51.1101 6.67417 50.8376C6.94663 50.5652 7.10352 50.1873 7.10352 49.802C7.10352 49.4153 6.94678 49.0388 6.67417 48.7649C6.40186 48.4924 6.02393 48.3357 5.63867 48.3357C5.25327 48.3357 4.87549 48.4924 4.60303 48.7649C4.33057 49.0388 4.17383 49.4153 4.17383 49.802C4.17383 50.1873 4.33042 50.5652 4.60303 50.8376C4.87549 51.11 5.25327 51.2668 5.63867 51.2668Z" fill="#FBFBFB"/>
<path d="M24.5098 46.7251H18.0645C17.2556 46.7251 16.5996 47.3809 16.5996 48.1899V51.7056H13.084C12.2751 51.7056 11.6191 52.3614 11.6191 53.1704V59.6157C11.6191 60.4248 12.2751 61.0806 13.084 61.0806H16.5996V64.5962C16.5996 65.4052 17.2556 66.061 18.0645 66.061H24.5098C25.3187 66.061 25.9746 65.4052 25.9746 64.5962V61.0806H29.4902C30.2991 61.0806 30.9551 60.4248 30.9551 59.6157V53.1704C30.9551 52.3614 30.2991 51.7056 29.4902 51.7056H25.9746V48.1899C25.9746 47.3809 25.3187 46.7251 24.5098 46.7251ZM28.0254 54.6353V58.1509H24.5098C23.7007 58.1509 23.0449 58.8067 23.0449 59.6157V63.1314H19.5293V59.6157C19.5293 58.8067 18.8733 58.1509 18.0645 58.1509H14.5488V54.6353H18.0645C18.8733 54.6353 19.5293 53.9794 19.5293 53.1704V49.6548H23.0449V53.1704C23.0449 53.9794 23.7007 54.6353 24.5098 54.6353H28.0254Z" fill="#FBFBFB"/>
</g>
<defs>
<clipPath id="clip0">
<rect width="75" height="75" fill="white"/>
</clipPath>
</defs>
</svg>
