<svg width="170" height="170" viewBox="0 0 170 170" fill="none" xmlns="http://www.w3.org/2000/svg">
<path d="M155.314 4.25C158.081 4.25315 160.733 5.3537 162.69 7.3102C164.646 9.2667 165.747 11.9194 165.75 14.6863V155.314C165.747 158.081 164.646 160.733 162.69 162.69C160.733 164.646 158.081 165.747 155.314 165.75H14.6863C11.9194 165.747 9.2667 164.646 7.3102 162.69C5.3537 160.733 4.25315 158.081 4.25 155.314V14.6863C4.25315 11.9194 5.3537 9.2667 7.3102 7.3102C9.2667 5.3537 11.9194 4.25315 14.6863 4.25H155.314ZM155.314 0H14.6863C10.7913 0 7.05573 1.5473 4.30152 4.30152C1.5473 7.05573 0 10.7913 0 14.6863L0 155.314C0 159.209 1.5473 162.944 4.30152 165.698C7.05573 168.453 10.7913 170 14.6863 170H155.314C159.209 170 162.944 168.453 165.698 165.698C168.453 162.944 170 159.209 170 155.314V14.6863C170 10.7913 168.453 7.05573 165.698 4.30152C162.944 1.5473 159.209 0 155.314 0V0Z" fill="#4A4E79"/>
<path d="M142.8 43.5452H137.061V34.2293C137.059 32.6739 136.44 31.1827 135.34 30.0829C134.241 28.983 132.749 28.3643 131.194 28.3625H127.078C125.522 28.3634 124.031 28.9818 122.93 30.0818C121.83 31.1817 121.211 32.6734 121.21 34.2293V43.5452H107.913V34.2293C107.911 32.6739 107.292 31.1827 106.192 30.0829C105.092 28.983 103.601 28.3643 102.046 28.3625H97.9301C96.3749 28.3643 94.8839 28.9831 93.7843 30.083C92.6848 31.1828 92.0665 32.674 92.0651 34.2293V43.5452H78.7626V34.2293C78.7613 32.674 78.143 31.1828 77.0434 30.083C75.9438 28.9831 74.4528 28.3643 72.8976 28.3625H68.7853C67.2299 28.3643 65.7387 28.983 64.6389 30.0829C63.5391 31.1827 62.9204 32.6739 62.9186 34.2293V43.5452H49.6144V34.2293C49.6126 32.6742 48.9942 31.1832 47.8947 30.0835C46.7952 28.9837 45.3045 28.3648 43.7494 28.3625H39.6337C38.0783 28.3643 36.5871 28.983 35.4873 30.0829C34.3875 31.1827 33.7688 32.6739 33.767 34.2293V43.5452H28.0295C25.9332 43.5475 23.9234 44.3812 22.4411 45.8636C20.9588 47.3459 20.1251 49.3557 20.1228 51.452V134.47C20.1251 136.295 20.8514 138.046 22.1425 139.336C23.4335 140.627 25.1839 141.353 27.0095 141.355H143.82C145.645 141.353 147.395 140.626 148.686 139.336C149.977 138.045 150.703 136.295 150.705 134.47V51.452C150.703 49.3559 149.869 47.3464 148.387 45.8642C146.905 44.3819 144.896 43.5479 142.8 43.5452ZM124.78 34.2293C124.78 33.6206 125.022 33.0369 125.452 32.6063C125.883 32.1758 126.466 31.9334 127.075 31.9325H131.191C131.799 31.9334 132.383 32.1758 132.813 32.6063C133.243 33.0369 133.485 33.6206 133.486 34.2293V43.5452H124.78V34.2293ZM95.6317 34.2293C95.6321 33.6206 95.874 33.0369 96.3043 32.6063C96.7345 32.1758 97.318 31.9334 97.9267 31.9325H102.039C102.648 31.9334 103.231 32.1758 103.661 32.6063C104.092 33.0369 104.334 33.6206 104.334 34.2293V43.5452H95.6351L95.6317 34.2293ZM66.4835 34.2293C66.484 33.6206 66.7258 33.0369 67.1561 32.6063C67.5863 32.1758 68.1698 31.9334 68.7785 31.9325H72.8942C73.5029 31.9334 74.0864 32.1758 74.5166 32.6063C74.9469 33.0369 75.1888 33.6206 75.1892 34.2293V43.5452H66.4869L66.4835 34.2293ZM37.3353 34.2293C37.3358 33.6206 37.5776 33.0369 38.0079 32.6063C38.4381 32.1758 39.0216 31.9334 39.6303 31.9325H43.746C44.3547 31.9334 44.9382 32.1758 45.3684 32.6063C45.7987 33.0369 46.0406 33.6206 46.041 34.2293V43.5452H37.3387L37.3353 34.2293ZM23.6928 51.452C23.6942 50.3024 24.1515 49.2003 24.9646 48.3875C25.7776 47.5748 26.8799 47.1178 28.0295 47.117H142.8C143.95 47.1178 145.052 47.5748 145.865 48.3875C146.678 49.2003 147.135 50.3024 147.137 51.452V63.0596H23.6928V51.452ZM147.135 134.47C147.132 135.347 146.781 136.188 146.16 136.808C145.539 137.428 144.698 137.777 143.82 137.778H27.0095C26.1316 137.777 25.2898 137.428 24.6682 136.809C24.0467 136.189 23.6959 135.348 23.6928 134.47V66.6398H147.135V134.47Z" fill="#4A4E79"/>
<path d="M27.0096 142.028C25.0057 142.023 23.0853 141.225 21.6675 139.809C20.2498 138.393 19.4501 136.474 19.4429 134.47V51.452C19.4491 49.1769 20.3556 46.9968 21.9642 45.3878C23.5728 43.7789 25.7528 42.872 28.0279 42.8653H33.0871V34.2293C33.092 32.4948 33.7831 30.8328 35.0094 29.6061C36.2357 28.3795 37.8976 27.688 39.6321 27.6826H43.7495C45.4838 27.6876 47.1457 28.3787 48.372 29.6051C49.5984 30.8314 50.2895 32.4933 50.2945 34.2276V42.8653H62.2387V34.2293C62.2436 32.4948 62.9347 30.8328 64.161 29.6061C65.3873 28.3795 67.0492 27.688 68.7837 27.6826H72.8977C74.632 27.6876 76.2939 28.3787 77.5202 29.6051C78.7466 30.8314 79.4377 32.4933 79.4427 34.2276V42.8653H91.3852V34.2293C91.3896 32.4947 92.0806 30.8324 93.307 29.6057C94.5334 28.3789 96.1955 27.6876 97.9302 27.6826H102.046C103.78 27.6871 105.443 28.378 106.67 29.6045C107.896 30.8309 108.588 32.493 108.593 34.2276V42.8653H120.53V34.2293C120.534 32.4946 121.225 30.832 122.451 29.6052C123.678 28.3783 125.34 27.6871 127.075 27.6826H131.191C132.925 27.6871 134.588 28.378 135.814 29.6045C137.041 30.8309 137.732 32.493 137.737 34.2276V42.8653H142.8C145.075 42.872 147.255 43.7789 148.864 45.3878C150.472 46.9968 151.379 49.1769 151.385 51.452V134.47C151.38 136.475 150.581 138.396 149.163 139.813C147.746 141.231 145.825 142.029 143.82 142.035L27.0096 142.028ZM28.0296 44.2253C26.1144 44.2311 24.2794 44.9946 22.9254 46.349C21.5713 47.7034 20.8083 49.5386 20.8029 51.4537V134.47C20.8074 136.114 21.4628 137.69 22.6258 138.853C23.7889 140.016 25.365 140.671 27.0096 140.675H143.82C145.464 140.67 147.04 140.015 148.202 138.852C149.365 137.689 150.02 136.114 150.025 134.47V51.452C150.019 49.5375 149.256 47.703 147.902 46.349C146.549 44.995 144.715 44.2316 142.8 44.2253H136.381V34.2293C136.377 32.8548 135.83 31.5377 134.858 30.5657C133.886 29.5938 132.569 29.0462 131.194 29.0426H127.078C125.703 29.0453 124.386 29.5926 123.413 30.5646C122.441 31.5367 121.893 32.8544 121.89 34.2293V44.2253H107.233V34.2293C107.229 32.8548 106.681 31.5377 105.709 30.5657C104.738 29.5938 103.42 29.0462 102.046 29.0426H97.9302C96.556 29.0467 95.2392 29.5945 94.2677 30.5663C93.2961 31.5382 92.7488 32.8551 92.7452 34.2293V44.2253H78.0827V34.2293C78.0791 32.8548 77.5315 31.5377 76.5596 30.5657C75.5876 29.5938 74.2705 29.0462 72.896 29.0426H68.7854C67.411 29.0467 66.0941 29.5944 65.1223 30.5662C64.1505 31.538 63.6027 32.855 63.5987 34.2293V44.2253H48.9345V34.2293C48.9309 32.8548 48.3833 31.5377 47.4114 30.5657C46.4394 29.5938 45.1223 29.0462 43.7478 29.0426H39.6338C38.2594 29.0467 36.9425 29.5944 35.9707 30.5662C34.9989 31.538 34.4511 32.855 34.4471 34.2293V44.2253H28.0296ZM143.82 138.458H27.0096C25.9519 138.455 24.9381 138.035 24.1894 137.287C23.4407 136.54 23.0178 135.528 23.0129 134.47V65.9598H147.815V134.47C147.81 135.527 147.387 136.54 146.639 137.287C145.891 138.034 144.877 138.455 143.82 138.458ZM24.3729 67.3096V134.47C24.3751 135.168 24.6537 135.837 25.1477 136.331C25.6418 136.825 26.3111 137.103 27.0096 137.105H143.82C144.518 137.102 145.187 136.824 145.68 136.33C146.174 135.836 146.452 135.168 146.455 134.47V67.3198L24.3729 67.3096ZM147.815 63.7396H23.0129V51.452C23.0169 50.1232 23.5466 48.85 24.4862 47.9103C25.4258 46.9707 26.699 46.4411 28.0279 46.437H142.8C144.129 46.4402 145.403 46.9695 146.343 47.9092C147.283 48.849 147.813 50.1228 147.817 51.452L147.815 63.7396ZM24.3729 62.3796H146.455V51.452C146.452 50.4835 146.066 49.5554 145.381 48.8705C144.697 48.1857 143.769 47.7997 142.8 47.797H28.0296C27.0606 47.7997 26.132 48.1858 25.4469 48.871C24.7617 49.5562 24.3756 50.4847 24.3729 51.4537V62.3796ZM134.169 44.2253H124.1V34.2276C124.103 33.4394 124.417 32.6843 124.974 32.1269C125.532 31.5696 126.287 31.2553 127.075 31.2526H131.191C131.979 31.2553 132.734 31.5696 133.291 32.1269C133.849 32.6843 134.163 33.4394 134.166 34.2276L134.169 44.2253ZM125.463 42.8653H132.809V34.2293C132.808 33.8013 132.637 33.3911 132.335 33.0882C132.032 32.7854 131.622 32.6144 131.194 32.6126H127.078C126.65 32.6144 126.24 32.7854 125.938 33.0882C125.635 33.3911 125.465 33.8013 125.463 34.2293V42.8653ZM105.017 44.2253H94.9552V34.2276C94.9579 33.4394 95.2722 32.6843 95.8295 32.1269C96.3868 31.5696 97.142 31.2553 97.9302 31.2526H102.042C102.831 31.2553 103.586 31.5696 104.143 32.1269C104.7 32.6843 105.015 33.4394 105.017 34.2276V44.2253ZM96.3152 42.8653H103.657V34.2293C103.656 33.8013 103.486 33.3911 103.183 33.0882C102.881 32.7854 102.471 32.6144 102.042 32.6126H97.9302C97.5021 32.6144 97.0921 32.7854 96.7896 33.0882C96.487 33.3911 96.3165 33.8013 96.3152 34.2293V42.8653ZM75.8727 44.2253H65.807V34.2276C65.8097 33.4397 66.1237 32.6848 66.6807 32.1275C67.2377 31.5703 67.9924 31.2558 68.7803 31.2526H72.8977C73.6859 31.2553 74.441 31.5696 74.9983 32.1269C75.5557 32.6843 75.87 33.4394 75.8727 34.2276V44.2253ZM67.167 42.8653H74.5127V34.2293C74.5109 33.8011 74.34 33.3909 74.0372 33.0881C73.7344 32.7853 73.3242 32.6144 72.896 32.6126H68.782C68.3539 32.6144 67.9439 32.7854 67.6414 33.0882C67.3388 33.3911 67.1683 33.8013 67.167 34.2293V42.8653ZM46.7245 44.2253H36.6588V34.2276C36.6615 33.4397 36.9755 32.6848 37.5325 32.1275C38.0895 31.5703 38.8442 31.2558 39.6321 31.2526H43.7495C44.5377 31.2553 45.2928 31.5696 45.8501 32.1269C46.4075 32.6843 46.7218 33.4394 46.7245 34.2276V44.2253ZM38.0188 42.8653H45.3645V34.2293C45.3627 33.8011 45.1918 33.3909 44.889 33.0881C44.5862 32.7853 44.176 32.6144 43.7478 32.6126H39.6338C39.2057 32.6144 38.7957 32.7854 38.4932 33.0882C38.1906 33.3911 38.0201 33.8013 38.0188 34.2293V42.8653Z" fill="#4A4E79"/>
<path d="M125.725 110.08H136.68C137.694 110.079 138.666 109.675 139.383 108.958C140.1 108.241 140.504 107.269 140.505 106.255V98.1664C140.501 97.1538 140.097 96.1839 139.38 95.4687C138.663 94.7535 137.693 94.3512 136.68 94.3499H125.725C124.711 94.3508 123.739 94.754 123.021 95.4712C122.304 96.1883 121.901 97.1607 121.9 98.1749V106.25C121.9 107.265 122.302 108.239 123.02 108.957C123.737 109.675 124.71 110.079 125.725 110.08ZM125.47 98.1664C125.47 98.0987 125.497 98.0339 125.545 97.986C125.593 97.9382 125.658 97.9114 125.725 97.9114H136.68C136.747 97.9118 136.812 97.9388 136.86 97.9865C136.907 98.0343 136.934 98.0989 136.935 98.1664V106.25C136.934 106.317 136.907 106.382 136.86 106.43C136.812 106.477 136.747 106.504 136.68 106.505H125.725C125.658 106.505 125.593 106.478 125.545 106.43C125.497 106.382 125.47 106.317 125.47 106.25V98.1664Z" fill="#4A4E79"/>
<path d="M136.68 110.76H125.724C124.529 110.757 123.384 110.281 122.54 109.435C121.696 108.59 121.222 107.445 121.22 106.25V98.1664C121.225 96.9742 121.701 95.8324 122.545 94.99C123.389 94.1476 124.531 93.6731 125.724 93.6699H136.68C137.874 93.6735 139.017 94.1493 139.862 94.9934C140.706 95.8374 141.181 96.9812 141.185 98.1749V106.25C141.183 107.445 140.708 108.59 139.863 109.435C139.019 110.28 137.875 110.756 136.68 110.76ZM125.727 109.4H136.68C137.513 109.398 138.312 109.066 138.901 108.476C139.491 107.887 139.823 107.088 139.825 106.255V98.1664C139.82 97.3346 139.487 96.5384 138.898 95.951C138.309 95.3636 137.512 95.0326 136.68 95.0299H125.725C124.892 95.0322 124.093 95.3645 123.503 95.9542C122.914 96.5438 122.582 97.3429 122.58 98.1766V106.25C122.581 107.084 122.913 107.884 123.502 108.475C124.092 109.065 124.891 109.398 125.725 109.4H125.727ZM125.727 107.19C125.48 107.189 125.243 107.091 125.068 106.916C124.893 106.742 124.794 106.506 124.792 106.258V98.1664C124.792 97.9186 124.891 97.681 125.066 97.5058C125.242 97.3305 125.479 97.2319 125.727 97.2314H136.68C136.928 97.2319 137.165 97.3305 137.341 97.5058C137.516 97.681 137.615 97.9186 137.615 98.1664V106.25C137.614 106.497 137.515 106.734 137.34 106.909C137.166 107.084 136.929 107.183 136.682 107.185L125.727 107.19ZM126.152 98.5914V105.83H136.255V98.5999L126.152 98.5914Z" fill="#4A4E79"/>
<path d="M95.2 131.153H106.153C107.167 131.152 108.139 130.748 108.856 130.031C109.573 129.314 109.977 128.342 109.978 127.328V119.239C109.977 118.225 109.574 117.253 108.857 116.536C108.14 115.818 107.167 115.415 106.153 115.414H95.2C94.186 115.416 93.2138 115.819 92.4968 116.536C91.7798 117.253 91.3763 118.225 91.375 119.239V127.33C91.3768 128.343 91.7804 129.315 92.4974 130.032C93.2144 130.748 94.1863 131.152 95.2 131.153ZM94.945 119.239C94.945 119.172 94.9719 119.107 95.0197 119.059C95.0675 119.011 95.1324 118.984 95.2 118.984H106.153C106.221 118.984 106.286 119.011 106.333 119.059C106.381 119.107 106.408 119.172 106.408 119.239V127.33C106.408 127.397 106.381 127.462 106.333 127.509C106.285 127.557 106.221 127.584 106.153 127.585H95.2C95.1326 127.584 95.0683 127.557 95.0207 127.509C94.973 127.461 94.9459 127.397 94.945 127.33V119.239Z" fill="#4A4E79"/>
<path d="M106.153 131.833H95.2001C94.0067 131.83 92.8631 131.354 92.0191 130.51C91.1751 129.667 90.6991 128.523 90.6951 127.33V119.24C90.6987 118.046 91.1744 116.902 92.0185 116.058C92.8626 115.214 94.0064 114.738 95.2001 114.735H106.153C107.347 114.738 108.491 115.213 109.335 116.058C110.179 116.902 110.655 118.046 110.658 119.24V127.33C110.654 128.523 110.178 129.667 109.334 130.51C108.49 131.354 107.347 131.83 106.153 131.833ZM95.2018 130.473H106.153C106.986 130.471 107.784 130.139 108.373 129.55C108.963 128.961 109.295 128.163 109.298 127.33V119.24C109.296 118.406 108.964 117.607 108.374 117.018C107.784 116.428 106.985 116.096 106.151 116.095H95.2001C94.3665 116.097 93.5679 116.43 92.9786 117.019C92.3893 117.609 92.0573 118.408 92.0551 119.241V127.33C92.0582 128.163 92.3906 128.961 92.9798 129.55C93.569 130.139 94.3671 130.471 95.2001 130.473H95.2018ZM95.2018 128.263C94.9548 128.262 94.7182 128.163 94.5433 127.989C94.3683 127.815 94.269 127.579 94.2668 127.332V119.24C94.2672 118.992 94.3659 118.754 94.5411 118.579C94.7164 118.404 94.9539 118.305 95.2018 118.305H106.155C106.403 118.305 106.64 118.404 106.816 118.579C106.991 118.754 107.089 118.992 107.09 119.24V127.33C107.089 127.577 106.99 127.814 106.816 127.989C106.641 128.165 106.404 128.264 106.157 128.265L95.2018 128.263ZM95.6268 119.665V126.903H105.73V119.665H95.6268Z" fill="#4A4E79"/>
<path d="M125.725 131.153H136.68C137.694 131.152 138.666 130.748 139.383 130.031C140.1 129.314 140.504 128.342 140.505 127.328V119.239C140.504 118.225 140.1 117.253 139.383 116.536C138.666 115.819 137.694 115.416 136.68 115.414H125.725C124.711 115.415 123.739 115.818 123.021 116.536C122.304 117.253 121.901 118.225 121.9 119.239V127.33C121.902 128.343 122.306 129.315 123.023 130.032C123.74 130.748 124.711 131.152 125.725 131.153ZM125.47 119.239C125.47 119.172 125.497 119.107 125.545 119.059C125.593 119.011 125.658 118.984 125.725 118.984H136.68C136.748 118.984 136.812 119.011 136.86 119.059C136.908 119.107 136.935 119.172 136.935 119.239V127.33C136.934 127.397 136.907 127.461 136.859 127.509C136.812 127.557 136.747 127.584 136.68 127.585H125.725C125.658 127.584 125.593 127.557 125.545 127.509C125.498 127.462 125.471 127.397 125.47 127.33V119.239Z" fill="#4A4E79"/>
<path d="M136.68 131.833H125.724C124.53 131.83 123.387 131.354 122.543 130.51C121.699 129.667 121.224 128.523 121.22 127.33V119.24C121.223 118.046 121.698 116.902 122.542 116.058C123.386 115.213 124.53 114.738 125.724 114.735H136.68C137.874 114.738 139.017 115.214 139.862 116.058C140.706 116.902 141.181 118.046 141.185 119.24V127.33C141.181 128.523 140.705 129.667 139.861 130.51C139.017 131.354 137.873 131.83 136.68 131.833ZM125.727 130.473H136.68C137.513 130.47 138.31 130.138 138.899 129.549C139.488 128.96 139.82 128.163 139.823 127.33V119.24C139.821 118.407 139.489 117.609 138.9 117.019C138.311 116.43 137.513 116.098 136.68 116.095H125.725C124.892 116.097 124.093 116.429 123.503 117.019C122.914 117.609 122.582 118.408 122.58 119.241V127.33C122.583 128.163 122.915 128.961 123.504 129.55C124.094 130.139 124.892 130.471 125.725 130.473H125.727ZM125.727 128.263C125.48 128.262 125.243 128.164 125.068 127.99C124.893 127.815 124.794 127.579 124.792 127.332V119.24C124.792 118.992 124.891 118.754 125.066 118.579C125.242 118.404 125.479 118.305 125.727 118.305H136.68C136.928 118.305 137.165 118.404 137.341 118.579C137.516 118.754 137.615 118.992 137.615 119.24V127.33C137.614 127.577 137.515 127.814 137.34 127.989C137.166 128.164 136.929 128.263 136.682 128.265L125.727 128.263ZM126.152 119.665V126.903H136.255V119.665H126.152Z" fill="#4A4E79"/>
<path d="M34.1495 131.146H45.1026C46.1167 131.145 47.0891 130.742 47.8063 130.025C48.5234 129.308 48.9267 128.336 48.9276 127.321V119.236C48.9267 118.222 48.5234 117.249 47.8064 116.532C47.0893 115.814 46.1169 115.411 45.1026 115.409H34.1495C33.1353 115.411 32.1632 115.815 31.4462 116.532C30.7292 117.25 30.3258 118.222 30.3245 119.236V127.33C30.3281 128.342 30.7325 129.312 31.4493 130.028C32.1661 130.743 33.1369 131.145 34.1495 131.146ZM33.8945 119.236C33.8945 119.168 33.9213 119.104 33.9691 119.056C34.017 119.008 34.0818 118.981 34.1495 118.981H45.1026C45.1702 118.981 45.2351 119.008 45.2829 119.056C45.3307 119.104 45.3576 119.168 45.3576 119.236V127.33C45.3576 127.397 45.3307 127.462 45.2829 127.51C45.2351 127.558 45.1702 127.585 45.1026 127.585H34.1495C34.0818 127.585 34.017 127.558 33.9691 127.51C33.9213 127.462 33.8945 127.397 33.8945 127.33V119.236Z" fill="#4A4E79"/>
<path d="M34.1495 131.826C32.9573 131.823 31.8148 131.348 30.971 130.506C30.1271 129.664 29.6504 128.522 29.6445 127.33V119.236C29.6481 118.042 30.1238 116.898 30.9679 116.054C31.8119 115.21 32.9557 114.734 34.1495 114.729H45.1026C46.2963 114.733 47.4401 115.209 48.2842 116.053C49.1283 116.897 49.604 118.041 49.6076 119.234V127.33C49.6045 128.523 49.1291 129.667 48.2853 130.511C47.4415 131.355 46.2979 131.831 45.1043 131.835L34.1495 131.826ZM34.1495 130.466H45.1009C45.9343 130.464 46.733 130.132 47.3223 129.543C47.9116 128.953 48.2437 128.155 48.2459 127.321V119.236C48.2437 118.403 47.9117 117.604 47.3224 117.014C46.7331 116.425 45.9345 116.092 45.1009 116.089H34.1495C33.3161 116.093 32.5177 116.425 31.9285 117.015C31.3394 117.604 31.0072 118.403 31.0045 119.236V127.33C31.0095 128.162 31.3429 128.958 31.9322 129.546C32.5216 130.133 33.3191 130.464 34.1512 130.466H34.1495ZM45.1009 128.256H34.1495C33.9016 128.256 33.6637 128.158 33.4884 127.983C33.313 127.807 33.2145 127.569 33.2145 127.321V119.236C33.2145 118.988 33.313 118.75 33.4884 118.575C33.6637 118.4 33.9016 118.301 34.1495 118.301H45.1026C45.3506 118.301 45.5884 118.4 45.7638 118.575C45.9391 118.75 46.0376 118.988 46.0376 119.236V127.33C46.0358 127.577 45.9365 127.813 45.7614 127.987C45.5862 128.161 45.3494 128.258 45.1026 128.258L45.1009 128.256ZM34.5728 126.896H44.6759V119.661H34.5745L34.5728 126.896Z" fill="#4A4E79"/>
<path d="M64.6749 131.146H75.628C76.642 131.145 77.6141 130.742 78.3312 130.025C79.0482 129.307 79.4516 128.335 79.453 127.321V119.236C79.4516 118.222 79.0482 117.25 78.3313 116.532C77.6143 115.815 76.6421 115.411 75.628 115.409H64.6749C63.6605 115.411 62.6881 115.814 61.9711 116.532C61.254 117.249 60.8508 118.222 60.8499 119.236V127.33C60.853 128.343 61.2573 129.313 61.9742 130.028C62.691 130.743 63.6621 131.145 64.6749 131.146ZM64.4199 119.236C64.4199 119.168 64.4467 119.104 64.4945 119.056C64.5424 119.008 64.6072 118.981 64.6749 118.981H75.628C75.6956 118.981 75.7604 119.008 75.8083 119.056C75.8561 119.104 75.883 119.168 75.883 119.236V127.33C75.883 127.397 75.8561 127.462 75.8083 127.51C75.7604 127.558 75.6956 127.585 75.628 127.585H64.6749C64.6072 127.585 64.5424 127.558 64.4945 127.51C64.4467 127.462 64.4199 127.397 64.4199 127.33V119.236Z" fill="#4A4E79"/>
<path d="M64.6747 131.826C63.4823 131.823 62.3395 131.349 61.4956 130.506C60.6517 129.664 60.1751 128.522 60.1697 127.33V119.236C60.1728 118.042 60.6482 116.899 61.4919 116.054C62.3357 115.21 63.4793 114.734 64.673 114.729H75.6278C76.8215 114.733 77.9652 115.209 78.8093 116.053C79.6534 116.897 80.1292 118.041 80.1328 119.234V127.33C80.1292 128.524 79.6534 129.667 78.8093 130.511C77.9652 131.356 76.8215 131.831 75.6278 131.835L64.6747 131.826ZM64.6747 130.466H75.6261C76.4595 130.464 77.2581 130.132 77.8474 129.543C78.4368 128.953 78.7688 128.155 78.7711 127.321V119.236C78.7684 118.402 78.436 117.604 77.8465 117.014C77.2569 116.425 76.4581 116.092 75.6244 116.089H64.6747C63.8411 116.092 63.0425 116.425 62.4532 117.014C61.8639 117.604 61.5319 118.403 61.5297 119.236V127.33C61.5346 128.162 61.868 128.958 62.4574 129.546C63.0467 130.133 63.8443 130.464 64.6764 130.466H64.6747ZM75.6261 128.256H64.6747C64.4276 128.255 64.1908 128.157 64.0157 127.983C63.8407 127.808 63.7415 127.572 63.7397 127.325V119.233C63.741 118.986 63.8396 118.75 64.014 118.576C64.1884 118.401 64.4246 118.303 64.6713 118.301H75.6278C75.8757 118.301 76.1136 118.4 76.2889 118.575C76.4643 118.75 76.5628 118.988 76.5628 119.236V127.33C76.561 127.577 76.4617 127.813 76.2865 127.987C76.1114 128.161 75.8746 128.258 75.6278 128.258L75.6261 128.256ZM65.098 119.659V126.896H75.2011V119.661L65.098 119.659Z" fill="#4A4E79"/>
<path d="M47.9247 73.807C47.7381 73.6649 47.5253 73.561 47.2986 73.5012C47.0718 73.4413 46.8354 73.4268 46.603 73.4584C46.3707 73.49 46.1468 73.567 45.9442 73.6852C45.7416 73.8033 45.5642 73.9602 45.4223 74.147L37.9814 83.8778L33.7977 78.5959C33.4953 78.2546 33.0737 78.042 32.6194 78.0017C32.1652 77.9614 31.7128 78.0965 31.355 78.3792C30.9972 78.662 30.7612 79.0709 30.6954 79.5222C30.6296 79.9734 30.7391 80.4327 31.0012 80.8059L36.6112 87.8864C36.7781 88.0979 36.9906 88.2689 37.2329 88.3866C37.4752 88.5044 37.7409 88.5658 38.0103 88.5664H38.0256C38.2972 88.5639 38.5647 88.4996 38.8078 88.3782C39.0508 88.2568 39.263 88.0817 39.4281 87.866L48.2681 76.306C48.4102 76.1194 48.5141 75.9066 48.5739 75.6798C48.6337 75.453 48.6482 75.2167 48.6167 74.9843C48.5851 74.7519 48.508 74.528 48.3899 74.3254C48.2717 74.1228 48.1148 73.9455 47.9281 73.8036L47.9247 73.807Z" fill="#4A4E79"/>
<path d="M38.0306 89.2499H38.0119C37.64 89.251 37.2728 89.1675 36.9379 89.0059C36.6031 88.8442 36.3094 88.6085 36.079 88.3166L30.469 81.2361C30.0632 80.7237 29.8774 80.0713 29.9523 79.422C30.0272 78.7727 30.3567 78.1797 30.8685 77.7732C31.1227 77.5715 31.4142 77.4219 31.7263 77.3328C32.0384 77.2438 32.3649 77.2172 32.6873 77.2545C33.0097 77.2917 33.3216 77.3921 33.6051 77.55C33.8887 77.7078 34.1384 77.92 34.3399 78.1744L37.9796 82.7644L44.8799 73.7289C45.2645 73.2266 45.8273 72.8912 46.4521 72.7919C47.0769 72.6925 47.7159 72.8369 48.2374 73.1951H48.2459L48.336 73.2631H48.3479L48.3734 73.2835C48.8787 73.6849 49.2066 74.2684 49.2867 74.9088C49.3668 75.5492 49.1927 76.1955 48.8018 76.709L39.9618 88.269C39.7367 88.5688 39.4459 88.8132 39.1117 88.9832C38.7776 89.1532 38.4089 89.2445 38.034 89.2499H38.0306ZM32.3968 78.6011C32.1895 78.6017 31.9866 78.6606 31.8112 78.7711C31.6358 78.8816 31.495 79.0392 31.4049 79.2259C31.3149 79.4126 31.2791 79.6209 31.3018 79.827C31.3245 80.033 31.4047 80.2285 31.5332 80.3912L37.1432 87.4717C37.2479 87.6033 37.3811 87.7093 37.5329 87.7817C37.6846 87.854 37.8509 87.8909 38.019 87.8894C38.1871 87.8879 38.3527 87.8482 38.5032 87.7731C38.6537 87.6981 38.785 87.5898 38.8874 87.4564L47.7274 75.8964C47.894 75.6769 47.9728 75.4032 47.9483 75.1287C47.9237 74.8542 47.7977 74.5987 47.5948 74.4123L47.5625 74.4021L47.4843 74.3239C47.2508 74.1586 46.9622 74.0904 46.6794 74.1335C46.3966 74.1766 46.1416 74.3277 45.9679 74.5551L37.9949 84.9863L33.2706 79.0193C33.1807 78.9052 33.069 78.8101 32.9421 78.7395C32.8151 78.6689 32.6754 78.6241 32.5311 78.6079C32.4865 78.6028 32.4417 78.6006 32.3968 78.6011Z" fill="#4A4E79"/>
<path d="M78.5246 73.807C78.338 73.6649 78.1252 73.561 77.8984 73.5012C77.6716 73.4413 77.4353 73.4268 77.2029 73.4584C76.9705 73.49 76.7466 73.567 76.544 73.6852C76.3414 73.8033 76.1641 73.9602 76.0222 74.147L68.5813 83.8778L64.3976 78.5959C64.0951 78.2546 63.6735 78.042 63.2193 78.0017C62.7651 77.9614 62.3126 78.0965 61.9549 78.3792C61.5971 78.662 61.3611 79.0709 61.2953 79.5222C61.2295 79.9734 61.3389 80.4327 61.6011 80.8059L67.2111 87.8864C67.3779 88.0979 67.5904 88.2689 67.8327 88.3866C68.075 88.5044 68.3408 88.5658 68.6102 88.5664H68.6255C68.8971 88.5639 69.1646 88.4996 69.4076 88.3782C69.6507 88.2568 69.8628 88.0817 70.028 87.866L78.868 76.306C79.01 76.1194 79.1139 75.9066 79.1737 75.6798C79.2336 75.453 79.2481 75.2167 79.2165 74.9843C79.1849 74.7519 79.1079 74.528 78.9897 74.3254C78.8716 74.1228 78.7147 73.9455 78.528 73.8036L78.5246 73.807Z" fill="#4A4E79"/>
<path d="M68.6307 89.2499H68.612C68.2401 89.251 67.8729 89.1675 67.538 89.0059C67.2032 88.8442 66.9095 88.6085 66.6791 88.3166L61.0691 81.2361C60.6633 80.7237 60.4775 80.0713 60.5524 79.422C60.6273 78.7727 60.9568 78.1797 61.4686 77.7732C61.7228 77.5715 62.0143 77.4219 62.3264 77.3328C62.6385 77.2438 62.965 77.2172 63.2874 77.2545C63.6098 77.2917 63.9217 77.3921 64.2052 77.55C64.4888 77.7078 64.7385 77.92 64.94 78.1744L68.5797 82.7644L75.48 73.7289C75.8646 73.2266 76.4274 72.8912 77.0522 72.7919C77.677 72.6925 78.316 72.8369 78.8375 73.1951H78.846L78.9361 73.2631H78.948L78.9735 73.2835C79.4788 73.6849 79.8067 74.2684 79.8868 74.9088C79.9669 75.5492 79.7928 76.1955 79.4019 76.709L70.5619 88.269C70.3368 88.5688 70.046 88.8132 69.7118 88.9832C69.3777 89.1532 69.009 89.2445 68.6341 89.2499H68.6307ZM62.9969 78.6011C62.7896 78.6017 62.5867 78.6606 62.4113 78.7711C62.2359 78.8816 62.0951 79.0392 62.005 79.2259C61.915 79.4126 61.8792 79.6209 61.9019 79.827C61.9246 80.033 62.0048 80.2285 62.1333 80.3912L67.7433 87.4717C67.8479 87.6033 67.9812 87.7093 68.133 87.7817C68.2847 87.854 68.451 87.8909 68.6191 87.8894C68.7872 87.8879 68.9528 87.8482 69.1033 87.7731C69.2538 87.6981 69.3851 87.5898 69.4875 87.4564L78.3275 75.8964C78.4941 75.6769 78.5729 75.4032 78.5484 75.1287C78.5238 74.8542 78.3978 74.5987 78.1949 74.4123L78.1626 74.4021L78.0844 74.3239C77.8509 74.1586 77.5623 74.0904 77.2795 74.1335C76.9967 74.1766 76.7416 74.3277 76.568 74.5551L68.595 84.9863L63.8707 79.0193C63.7808 78.9052 63.6691 78.8101 63.5422 78.7395C63.4152 78.6689 63.2755 78.6241 63.1312 78.6079C63.0866 78.6028 63.0418 78.6006 62.9969 78.6011Z" fill="#4A4E79"/>
<path d="M109.295 73.807C109.108 73.6649 108.895 73.561 108.668 73.5012C108.442 73.4413 108.205 73.4268 107.973 73.4584C107.741 73.49 107.517 73.567 107.314 73.6852C107.111 73.8033 106.934 73.9602 106.792 74.147L99.3513 83.8778L95.1676 78.5959C94.8652 78.2546 94.4436 78.042 93.9893 78.0017C93.5351 77.9614 93.0827 78.0965 92.7249 78.3792C92.3671 78.662 92.1311 79.0709 92.0653 79.5222C91.9995 79.9734 92.1089 80.4327 92.3711 80.8059L97.9811 87.8864C98.1479 88.0979 98.3605 88.2689 98.6028 88.3866C98.845 88.5044 99.1108 88.5658 99.3802 88.5664H99.3955C99.6671 88.5639 99.9346 88.4996 100.178 88.3782C100.421 88.2568 100.633 88.0817 100.798 87.866L109.638 76.306C109.78 76.1194 109.884 75.9066 109.944 75.6798C110.004 75.453 110.018 75.2167 109.987 74.9843C109.955 74.7519 109.878 74.528 109.76 74.3254C109.642 74.1228 109.485 73.9455 109.298 73.8036L109.295 73.807Z" fill="#4A4E79"/>
<path d="M99.4005 89.2499H99.3818C99.01 89.251 98.6427 89.1675 98.3079 89.0059C97.973 88.8442 97.6793 88.6085 97.4489 88.3166L91.8389 81.2361C91.6302 80.9832 91.474 80.6912 91.3795 80.3772C91.285 80.0632 91.2541 79.7335 91.2886 79.4074C91.3231 79.0813 91.4223 78.7653 91.5805 78.4781C91.7386 78.1908 91.9525 77.938 92.2096 77.7344C92.4667 77.5308 92.7618 77.3806 93.0776 77.2925C93.3935 77.2044 93.7238 77.1802 94.0491 77.2213C94.3744 77.2624 94.6883 77.3681 94.9723 77.532C95.2563 77.696 95.5047 77.9149 95.703 78.1761L99.3427 82.7661L106.25 73.7289C106.639 73.2185 107.212 72.8799 107.846 72.7846C108.481 72.6894 109.128 72.8452 109.65 73.2189L109.701 73.258L109.718 73.2716L109.738 73.2869C110.244 73.6883 110.571 74.2718 110.652 74.9122C110.732 75.5526 110.558 76.1989 110.167 76.7124L101.327 88.2724C101.102 88.571 100.812 88.8142 100.478 88.9836C100.145 89.153 99.7777 89.2441 99.4039 89.2499H99.4005ZM93.7667 78.6011C93.5594 78.6017 93.3565 78.6607 93.1811 78.7712C93.0057 78.8816 92.865 79.0392 92.7749 79.226C92.6848 79.4127 92.6491 79.6209 92.6718 79.827C92.6944 80.033 92.7746 80.2286 92.9031 80.3912L98.5131 87.4717C98.6177 87.6035 98.7511 87.7096 98.9029 87.782C99.0548 87.8545 99.2212 87.8913 99.3894 87.8896C99.5576 87.888 99.7233 87.848 99.8737 87.7726C100.024 87.6972 100.155 87.5885 100.257 87.4547L109.097 75.8947C109.268 75.6685 109.345 75.3857 109.313 75.1044C109.282 74.8231 109.144 74.5645 108.927 74.3817L108.892 74.3647L108.849 74.3222C108.616 74.1569 108.327 74.0887 108.044 74.1318C107.761 74.1749 107.506 74.3261 107.333 74.5534L99.3614 84.9846L94.6354 79.0176C94.5455 78.9035 94.4338 78.8084 94.3069 78.7378C94.18 78.6672 94.0403 78.6225 93.8959 78.6062C93.853 78.6019 93.8099 78.6002 93.7667 78.6011Z" fill="#4A4E79"/>
<path d="M139.555 73.807C139.368 73.6649 139.155 73.561 138.928 73.5012C138.702 73.4413 138.465 73.4268 138.233 73.4584C138.001 73.49 137.777 73.567 137.574 73.6852C137.371 73.8033 137.194 73.9602 137.052 74.147L129.611 83.8778L125.428 78.5959C125.125 78.2546 124.704 78.042 124.249 78.0017C123.795 77.9614 123.343 78.0965 122.985 78.3792C122.627 78.662 122.391 79.0709 122.325 79.5222C122.26 79.9734 122.369 80.4327 122.631 80.8059L128.241 87.8864C128.408 88.0979 128.62 88.2689 128.863 88.3866C129.105 88.5044 129.371 88.5658 129.64 88.5664H129.655C129.927 88.5639 130.195 88.4996 130.438 88.3782C130.681 88.2568 130.893 88.0817 131.058 87.866L139.898 76.306C140.04 76.1194 140.144 75.9066 140.204 75.6798C140.264 75.453 140.278 75.2167 140.247 74.9843C140.215 74.7519 140.138 74.528 140.02 74.3254C139.902 74.1228 139.745 73.9455 139.558 73.8036L139.555 73.807Z" fill="#4A4E79"/>
<path d="M129.661 89.2498H129.642C129.27 89.2509 128.903 89.1675 128.568 89.0058C128.233 88.8441 127.939 88.6084 127.709 88.3165L122.099 81.236C121.89 80.9831 121.734 80.6911 121.639 80.3771C121.545 80.0631 121.514 79.7334 121.549 79.4073C121.583 79.0812 121.682 78.7652 121.841 78.478C121.999 78.1907 122.213 77.9379 122.47 77.7343C122.727 77.5307 123.022 77.3805 123.338 77.2924C123.654 77.2043 123.984 77.1801 124.309 77.2212C124.634 77.2623 124.948 77.368 125.232 77.5319C125.516 77.6959 125.765 77.9148 125.963 78.176L129.603 82.766L136.51 73.7288C136.899 73.2181 137.472 72.8791 138.106 72.7839C138.741 72.6887 139.388 72.8447 139.91 73.2188L139.961 73.2579L139.978 73.2715L139.998 73.2868C140.504 73.6882 140.831 74.2717 140.912 74.9121C140.992 75.5525 140.818 76.1988 140.427 76.7123L131.587 88.2723C131.362 88.5709 131.072 88.8141 130.738 88.9835C130.405 89.1529 130.038 89.244 129.664 89.2498H129.661ZM124.027 78.601C123.819 78.6016 123.617 78.6606 123.441 78.7711C123.266 78.8816 123.125 79.0392 123.035 79.2259C122.945 79.4126 122.909 79.6208 122.932 79.8269C122.954 80.0329 123.035 80.2285 123.163 80.3911L128.773 87.4716C128.878 87.6034 129.011 87.7095 129.163 87.782C129.315 87.8544 129.481 87.8912 129.649 87.8895C129.818 87.8879 129.983 87.8479 130.134 87.7725C130.284 87.6971 130.415 87.5884 130.517 87.4546L139.357 75.8946C139.528 75.6684 139.605 75.3856 139.573 75.1043C139.542 74.823 139.404 74.5644 139.187 74.3816L139.152 74.3646L139.109 74.3221C138.876 74.1569 138.587 74.0886 138.304 74.1317C138.022 74.1748 137.766 74.326 137.593 74.5533L129.621 84.9845L124.895 79.0175C124.806 78.9034 124.694 78.8083 124.567 78.7377C124.44 78.6671 124.3 78.6224 124.156 78.6061C124.113 78.6018 124.07 78.6001 124.027 78.601Z" fill="#4A4E79"/>
<path d="M47.9247 95.0569C47.7381 94.9149 47.5253 94.811 47.2986 94.7512C47.0718 94.6914 46.8354 94.6768 46.603 94.7084C46.3707 94.74 46.1468 94.817 45.9442 94.9352C45.7416 95.0533 45.5642 95.2102 45.4223 95.3969L37.9814 105.128L33.7977 99.8459C33.4953 99.5046 33.0737 99.292 32.6194 99.2517C32.1652 99.2114 31.7128 99.3465 31.355 99.6292C30.9972 99.912 30.7612 100.321 30.6954 100.772C30.6296 101.223 30.7391 101.683 31.0012 102.056L36.6112 109.136C36.7781 109.348 36.9906 109.519 37.2329 109.637C37.4752 109.754 37.7409 109.816 38.0103 109.816H38.0256C38.2972 109.814 38.5647 109.75 38.8078 109.628C39.0508 109.507 39.263 109.332 39.4281 109.116L48.2681 97.556C48.4102 97.3694 48.5141 97.1566 48.5739 96.9298C48.6337 96.703 48.6482 96.4667 48.6167 96.2343C48.5851 96.0019 48.508 95.778 48.3899 95.5754C48.2717 95.3728 48.1148 95.1955 47.9281 95.0536L47.9247 95.0569Z" fill="#4A4E79"/>
<path d="M38.0306 110.5H38.0119C37.6401 110.501 37.2728 110.418 36.938 110.256C36.6031 110.094 36.3094 109.859 36.079 109.567L30.469 102.486C30.2561 102.234 30.0961 101.941 29.9984 101.626C29.9007 101.311 29.8673 100.979 29.9002 100.65C29.9332 100.322 30.0318 100.004 30.1901 99.7139C30.3485 99.4242 30.5635 99.1694 30.8222 98.9644C31.081 98.7594 31.3783 98.6084 31.6964 98.5205C32.0146 98.4326 32.3472 98.4095 32.6745 98.4526C33.0018 98.4956 33.3171 98.604 33.6018 98.7712C33.8864 98.9385 34.1345 99.1612 34.3314 99.4261L37.9711 104.016L44.8799 94.9789C45.2753 94.4631 45.858 94.1239 46.5017 94.0348C47.1455 93.9457 47.7984 94.1139 48.319 94.5029L48.3343 94.5131L48.3717 94.5437C48.8777 94.9444 49.2061 95.5276 49.2862 96.168C49.3663 96.8084 49.1918 97.4546 48.8001 97.9675L39.9601 109.528C39.7343 109.826 39.4434 110.068 39.1096 110.237C38.7758 110.405 38.4079 110.495 38.034 110.5H38.0306ZM32.3968 99.8511C32.1895 99.8518 31.9866 99.9107 31.8112 100.021C31.6358 100.132 31.495 100.289 31.4049 100.476C31.3149 100.663 31.2791 100.871 31.3018 101.077C31.3245 101.283 31.4047 101.479 31.5332 101.641L37.1432 108.722C37.2479 108.853 37.3811 108.959 37.5329 109.032C37.6847 109.104 37.8509 109.141 38.019 109.139C38.1872 109.138 38.3527 109.098 38.5032 109.023C38.6537 108.948 38.7851 108.84 38.8874 108.706L47.7274 97.1464C47.9009 96.9165 47.9778 96.6278 47.9416 96.342C47.9054 96.0562 47.759 95.7959 47.5336 95.6164L47.4843 95.5807C47.2508 95.4155 46.9623 95.3472 46.6795 95.3904C46.3966 95.4335 46.1416 95.5846 45.9679 95.8119L37.9949 106.243L33.2706 100.276C33.1807 100.162 33.069 100.067 32.9421 99.9963C32.8151 99.9257 32.6754 99.881 32.5311 99.8647C32.4867 99.8574 32.4418 99.8529 32.3968 99.8511Z" fill="#4A4E79"/>
<path d="M78.5246 95.0569C78.338 94.9149 78.1252 94.811 77.8984 94.7512C77.6716 94.6914 77.4353 94.6768 77.2029 94.7084C76.9705 94.74 76.7466 94.817 76.544 94.9352C76.3414 95.0533 76.1641 95.2102 76.0222 95.3969L68.5813 105.128L64.3976 99.8459C64.0951 99.5046 63.6735 99.292 63.2193 99.2517C62.7651 99.2114 62.3126 99.3465 61.9549 99.6292C61.5971 99.912 61.3611 100.321 61.2953 100.772C61.2295 101.223 61.3389 101.683 61.6011 102.056L67.2111 109.136C67.3779 109.348 67.5904 109.519 67.8327 109.637C68.075 109.754 68.3408 109.816 68.6102 109.816H68.6255C68.8971 109.814 69.1646 109.75 69.4076 109.628C69.6507 109.507 69.8628 109.332 70.028 109.116L78.868 97.556C79.01 97.3694 79.1139 97.1566 79.1737 96.9298C79.2336 96.703 79.2481 96.4667 79.2165 96.2343C79.1849 96.0019 79.1079 95.778 78.9897 95.5754C78.8716 95.3728 78.7147 95.1955 78.528 95.0536L78.5246 95.0569Z" fill="#4A4E79"/>
<path d="M68.6307 110.5H68.612C68.2401 110.501 67.8729 110.418 67.5381 110.256C67.2032 110.094 66.9095 109.859 66.6791 109.567L61.0691 102.486C60.8562 102.234 60.6962 101.941 60.5985 101.626C60.5008 101.311 60.4674 100.979 60.5003 100.65C60.5333 100.322 60.6319 100.004 60.7902 99.7139C60.9486 99.4242 61.1636 99.1694 61.4223 98.9644C61.6811 98.7594 61.9783 98.6084 62.2965 98.5205C62.6147 98.4326 62.9473 98.4095 63.2746 98.4526C63.6019 98.4956 63.9172 98.604 64.2018 98.7712C64.4865 98.9385 64.7346 99.1612 64.9315 99.4261L68.5712 104.016L75.48 94.9789C75.8753 94.4631 76.4581 94.1239 77.1018 94.0348C77.7456 93.9457 78.3985 94.1139 78.9191 94.5029L78.9344 94.5131L78.9718 94.5437C79.4778 94.9444 79.8062 95.5276 79.8863 96.168C79.9664 96.8084 79.7919 97.4546 79.4002 97.9675L70.5602 109.528C70.3344 109.826 70.0435 110.068 69.7097 110.237C69.3759 110.405 69.008 110.495 68.6341 110.5H68.6307ZM62.9969 99.8511C62.7896 99.8518 62.5867 99.9107 62.4113 100.021C62.2359 100.132 62.0951 100.289 62.005 100.476C61.915 100.663 61.8792 100.871 61.9019 101.077C61.9246 101.283 62.0048 101.479 62.1333 101.641L67.7433 108.722C67.848 108.853 67.9812 108.959 68.133 109.032C68.2847 109.104 68.451 109.141 68.6191 109.139C68.7873 109.138 68.9528 109.098 69.1033 109.023C69.2538 108.948 69.3852 108.84 69.4875 108.706L78.3275 97.1464C78.501 96.9165 78.5779 96.6278 78.5417 96.342C78.5055 96.0562 78.3591 95.7959 78.1337 95.6164L78.0844 95.5807C77.8509 95.4155 77.5624 95.3472 77.2795 95.3904C76.9967 95.4335 76.7417 95.5846 76.568 95.8119L68.595 106.243L63.8707 100.276C63.7808 100.162 63.6691 100.067 63.5422 99.9963C63.4152 99.9257 63.2755 99.881 63.1312 99.8647C63.0868 99.8574 63.0419 99.8529 62.9969 99.8511Z" fill="#4A4E79"/>
<path d="M109.295 95.0569C109.108 94.9149 108.895 94.811 108.668 94.7512C108.442 94.6914 108.205 94.6768 107.973 94.7084C107.741 94.74 107.517 94.817 107.314 94.9352C107.111 95.0533 106.934 95.2102 106.792 95.3969L99.3513 105.128L95.1676 99.8459C94.8652 99.5046 94.4436 99.292 93.9893 99.2517C93.5351 99.2114 93.0827 99.3465 92.7249 99.6292C92.3671 99.912 92.1311 100.321 92.0653 100.772C91.9995 101.223 92.1089 101.683 92.3711 102.056L97.9811 109.136C98.1479 109.348 98.3605 109.519 98.6028 109.637C98.845 109.754 99.1108 109.816 99.3802 109.816H99.3955C99.6671 109.814 99.9346 109.75 100.178 109.628C100.421 109.507 100.633 109.332 100.798 109.116L109.638 97.556C109.78 97.3694 109.884 97.1566 109.944 96.9298C110.004 96.703 110.018 96.4667 109.987 96.2343C109.955 96.0019 109.878 95.778 109.76 95.5754C109.642 95.3728 109.485 95.1955 109.298 95.0536L109.295 95.0569Z" fill="#4A4E79"/>
<path d="M99.4005 110.5H99.3818C99.01 110.501 98.6428 110.417 98.3079 110.256C97.973 110.094 97.6793 109.858 97.4489 109.566L91.8389 102.486C91.6302 102.233 91.474 101.941 91.3795 101.627C91.285 101.313 91.2541 100.983 91.2886 100.657C91.3231 100.331 91.4223 100.015 91.5805 99.728C91.7386 99.4407 91.9525 99.1879 92.2096 98.9843C92.4667 98.7807 92.7618 98.6305 93.0776 98.5424C93.3935 98.4543 93.7238 98.4301 94.0491 98.4712C94.3744 98.5123 94.6883 98.618 94.9723 98.7819C95.2563 98.9459 95.5047 99.1648 95.703 99.426L99.3427 104.016L106.25 94.9788C106.645 94.4631 107.227 94.1239 107.871 94.0348C108.514 93.9457 109.167 94.1139 109.687 94.5028L109.745 94.547C110.25 94.9481 110.578 95.5315 110.658 96.1717C110.738 96.8119 110.563 97.4579 110.172 97.9708L101.332 109.531C101.105 109.828 100.814 110.071 100.48 110.238C100.146 110.406 99.7779 110.496 99.4039 110.5H99.4005ZM93.7667 99.851C93.5594 99.8516 93.3565 99.9106 93.1811 100.021C93.0057 100.132 92.865 100.289 92.7749 100.476C92.6848 100.663 92.6491 100.871 92.6718 101.077C92.6944 101.283 92.7746 101.478 92.9031 101.641L98.5131 108.722C98.6177 108.853 98.7511 108.96 98.9029 109.032C99.0548 109.104 99.2212 109.141 99.3894 109.14C99.5576 109.138 99.7233 109.098 99.8737 109.022C100.024 108.947 100.155 108.838 100.257 108.705L109.097 97.1446C109.27 96.9141 109.346 96.6256 109.309 96.34C109.273 96.0545 109.127 95.7943 108.902 95.6146L108.853 95.5789C108.619 95.4132 108.331 95.3447 108.048 95.3879C107.765 95.431 107.51 95.5824 107.336 95.8101L99.3648 106.241L94.6388 100.274C94.5489 100.16 94.4372 100.065 94.3103 99.9945C94.1834 99.9239 94.0437 99.8792 93.8993 99.8629C93.8554 99.8562 93.8111 99.8522 93.7667 99.851Z" fill="#4A4E79"/>
</svg>
