<svg width="22" height="22" viewBox="0 0 22 22" fill="none" xmlns="http://www.w3.org/2000/svg">
<g opacity="0.2" clip-path="url(#clip0)">
<path d="M8.0154 12.1373C8.0154 11.8617 7.79186 11.6384 7.51605 11.6384H5.7735C5.498 11.6384 5.27441 11.8617 5.27441 12.1373V13.8796C5.27441 14.1556 5.498 14.3789 5.7735 14.3789H7.51605C7.79186 14.3789 8.0154 14.1556 8.0154 13.8796V12.1373Z" fill="#4A4E79"/>
<path d="M12.3703 12.1373C12.3703 11.8617 12.1468 11.6384 11.8715 11.6384H10.1287C9.85322 11.6384 9.62964 11.8617 9.62964 12.1373V13.8796C9.62964 14.1556 9.85322 14.3789 10.1287 14.3789H11.8715C12.1468 14.3789 12.3703 14.1556 12.3703 13.8796V12.1373Z" fill="#4A4E79"/>
<path d="M16.7256 12.1373C16.7256 11.8617 16.502 11.6384 16.2265 11.6384H14.484C14.2082 11.6384 13.9846 11.8617 13.9846 12.1373V13.8796C13.9846 14.1556 14.2082 14.3789 14.484 14.3789H16.2265C16.502 14.3789 16.7256 14.1556 16.7256 13.8796V12.1373Z" fill="#4A4E79"/>
<path d="M8.0154 16.4926C8.0154 16.2166 7.79186 15.9935 7.51605 15.9935H5.7735C5.498 15.9935 5.27441 16.2166 5.27441 16.4926V18.2346C5.27441 18.5104 5.498 18.7337 5.7735 18.7337H7.51605C7.79186 18.7337 8.0154 18.5103 8.0154 18.2346V16.4926Z" fill="#4A4E79"/>
<path d="M12.3703 16.4926C12.3703 16.2166 12.1468 15.9935 11.8715 15.9935H10.1287C9.85322 15.9935 9.62964 16.2166 9.62964 16.4926V18.2346C9.62964 18.5104 9.85322 18.7337 10.1287 18.7337H11.8715C12.1468 18.7337 12.3703 18.5103 12.3703 18.2346V16.4926Z" fill="#4A4E79"/>
<path d="M16.7256 16.4926C16.7256 16.2166 16.502 15.9935 16.2267 15.9935H14.484C14.2082 15.9935 13.9846 16.2166 13.9846 16.4926V18.2346C13.9846 18.5104 14.2082 18.7337 14.484 18.7337H16.2267C16.502 18.7337 16.7256 18.5103 16.7256 18.2346V16.4926Z" fill="#4A4E79"/>
<path d="M19.8414 2.44962V5.11088C19.8414 6.31374 18.8656 7.28306 17.6629 7.28306H16.2886C15.0858 7.28306 14.0971 6.31374 14.0971 5.11088V2.44006H7.90297V5.11088C7.90297 6.31374 6.91427 7.28306 5.71167 7.28306H4.33715C3.13451 7.28306 2.15874 6.31374 2.15874 5.11088V2.44962C1.10762 2.4813 0.243896 3.35107 0.243896 4.42012V20.0164C0.243896 21.1055 1.12669 22 2.21584 22H19.7842C20.8718 22 21.7562 21.1037 21.7562 20.0164V4.42012C21.7562 3.35107 20.8925 2.4813 19.8414 2.44962ZM19.2031 19.0452C19.2031 19.5159 18.8214 19.8977 18.3506 19.8977H3.61196C3.14109 19.8977 2.75945 19.5159 2.75945 19.0452V10.9891C2.75945 10.5183 3.14104 10.1364 3.61196 10.1364H18.3505C18.8214 10.1364 19.203 10.5183 19.203 10.9891L19.2031 19.0452Z" fill="#4A4E79"/>
<path d="M4.33234 5.85635H5.69168C6.10428 5.85635 6.43881 5.52231 6.43881 5.10971V0.746911C6.43881 0.334269 6.10428 0 5.69168 0H4.33234C3.9197 0 3.58521 0.334269 3.58521 0.746911V5.10971C3.58521 5.52231 3.9197 5.85635 4.33234 5.85635Z" fill="#4A4E79"/>
<path d="M16.271 5.85635H17.6304C18.0427 5.85635 18.3772 5.52231 18.3772 5.10971V0.746911C18.3773 0.334269 18.0427 0 17.6304 0H16.271C15.8585 0 15.5239 0.334269 15.5239 0.746911V5.10971C15.5239 5.52231 15.8585 5.85635 16.271 5.85635Z" fill="#4A4E79"/>
</g>
<defs>
<clipPath id="clip0">
<rect width="22" height="22" fill="white"/>
</clipPath>
</defs>
</svg>
