<svg width="170" height="170" viewBox="0 0 170 170" fill="none" xmlns="http://www.w3.org/2000/svg">
<path d="M155.314 4.25C158.081 4.25315 160.733 5.3537 162.69 7.3102C164.646 9.2667 165.747 11.9194 165.75 14.6863V155.314C165.747 158.081 164.646 160.733 162.69 162.69C160.733 164.646 158.081 165.747 155.314 165.75H14.6863C11.9194 165.747 9.2667 164.646 7.3102 162.69C5.3537 160.733 4.25315 158.081 4.25 155.314V14.6863C4.25315 11.9194 5.3537 9.2667 7.3102 7.3102C9.2667 5.3537 11.9194 4.25315 14.6863 4.25H155.314ZM155.314 0H14.6863C10.7913 0 7.05573 1.5473 4.30152 4.30152C1.5473 7.05573 0 10.7913 0 14.6863L0 155.314C0 159.209 1.5473 162.944 4.30152 165.698C7.05573 168.453 10.7913 170 14.6863 170H155.314C159.209 170 162.944 168.453 165.698 165.698C168.453 162.944 170 159.209 170 155.314V14.6863C170 10.7913 168.453 7.05573 165.698 4.30152C162.944 1.5473 159.209 0 155.314 0V0Z" fill="#4A4E79"/>
<path d="M40.1302 135.49C39.5346 135.49 38.9575 135.696 38.4972 136.074C38.0368 136.452 37.7217 136.977 37.6056 137.562C37.4894 138.146 37.5794 138.752 37.8602 139.277C38.141 139.802 38.5952 140.214 39.1454 140.442C39.6956 140.669 40.3078 140.699 40.8777 140.526C41.4475 140.353 41.9397 139.988 42.2704 139.493C42.6011 138.998 42.7499 138.403 42.6913 137.81C42.6327 137.218 42.3704 136.664 41.9492 136.243C41.4656 135.762 40.812 135.491 40.1302 135.49Z" fill="#4A4E79"/>
<path d="M139.06 65.5042C138.464 65.5038 137.886 65.7103 137.424 66.0884C136.963 66.4666 136.647 66.993 136.531 67.578C136.414 68.1629 136.504 68.7702 136.785 69.2962C137.067 69.8222 137.521 70.2344 138.073 70.4625C138.624 70.6907 139.237 70.7206 139.807 70.5473C140.378 70.374 140.871 70.0081 141.202 69.512C141.533 69.0159 141.682 68.4203 141.623 67.8268C141.564 67.2333 141.301 66.6786 140.879 66.2573C140.395 65.777 139.742 65.5064 139.06 65.5042Z" fill="#4A4E79"/>
<path d="M149.236 19.1826H85.9351C85.5968 19.1826 85.2618 19.2493 84.9493 19.3789C84.6369 19.5084 84.353 19.6983 84.1139 19.9377C83.8749 20.177 83.6854 20.4612 83.5562 20.7738C83.4271 21.0865 83.3608 21.4215 83.3613 21.7598V29.1191L58.9697 35.6539C58.3103 35.8304 57.748 36.2617 57.4066 36.8527C57.0651 37.4438 56.9725 38.1463 57.149 38.8057L69.7919 85.9841L58.8558 96.9202C58.1476 95.8827 57.197 95.0337 56.0863 94.4468C54.9757 93.8599 53.7386 93.553 52.4825 93.5525H27.7798C25.7331 93.5548 23.7708 94.3688 22.3236 95.816C20.8764 97.2633 20.0623 99.2255 20.0601 101.272V143.216C20.0623 145.263 20.8764 147.225 22.3236 148.672C23.7708 150.12 25.7331 150.934 27.7798 150.936H52.4825C54.2062 150.934 55.8798 150.356 57.2373 149.293C58.5947 148.231 59.5581 146.745 59.9744 145.073L63.0344 147.742C65.3957 149.801 68.4231 150.936 71.5565 150.936H149.236C149.919 150.936 150.574 150.665 151.056 150.182C151.539 149.699 151.81 149.045 151.81 148.362V21.7598C151.81 21.4218 151.744 21.0871 151.615 20.7749C151.485 20.4626 151.296 20.1789 151.057 19.94C150.818 19.7011 150.534 19.5116 150.221 19.3826C149.909 19.2535 149.574 19.1873 149.236 19.1877V19.1826ZM88.5089 96.3898V24.3319H146.664V145.788H128.304C128.817 144.657 129.083 143.429 129.083 142.186C129.083 140.944 128.817 139.715 128.304 138.584H129.112C130.603 138.584 132.071 138.203 133.373 137.477C134.676 136.75 135.772 135.703 136.556 134.433C137.339 133.164 137.785 131.715 137.851 130.225C137.917 128.735 137.6 127.252 136.932 125.919C138.304 125.543 139.563 124.839 140.601 123.866C141.639 122.894 142.424 121.682 142.888 120.338C143.352 118.993 143.481 117.555 143.263 116.15C143.045 114.744 142.488 113.413 141.639 112.271V79.6567C141.648 79.3133 141.588 78.9715 141.462 78.6516C141.337 78.3317 141.149 78.0402 140.909 77.7942C140.669 77.5481 140.383 77.3526 140.066 77.2191C139.75 77.0856 139.41 77.0168 139.066 77.0168C138.722 77.0168 138.382 77.0856 138.066 77.2191C137.749 77.3526 137.463 77.5481 137.223 77.7942C136.983 78.0402 136.795 78.3317 136.67 78.6516C136.544 78.9715 136.484 79.3133 136.493 79.6567V108.939C135.879 108.804 135.252 108.735 134.623 108.734H134.54C135.142 107.401 135.4 105.939 135.291 104.48C135.182 103.022 134.709 101.614 133.915 100.386C133.121 99.1582 132.032 98.1488 130.747 97.4507C129.462 96.7525 128.022 96.3877 126.56 96.3898H122.422C125.032 95.2752 127.177 93.2935 128.494 90.7798C129.811 88.2661 130.22 85.3746 129.651 82.5942C129.083 79.8139 127.571 77.3153 125.372 75.5209C123.174 73.7266 120.423 72.7465 117.585 72.7465C114.747 72.7465 111.996 73.7266 109.797 75.5209C107.599 77.3153 106.087 79.8139 105.518 82.5942C104.949 85.3746 105.358 88.2661 106.675 90.7798C107.993 93.2935 110.138 95.2752 112.747 96.3898H98.68V47.4536C100.938 46.9569 103.007 45.8241 104.642 44.1893C106.276 42.5544 107.409 40.4858 107.906 38.2277H127.264C127.761 40.4857 128.894 42.5542 130.528 44.1891C132.163 45.8239 134.232 46.9567 136.49 47.4536V55.4538C136.481 55.7973 136.541 56.139 136.666 56.4589C136.792 56.7788 136.98 57.0703 137.219 57.3164C137.459 57.5624 137.746 57.7579 138.062 57.8915C138.379 58.025 138.719 58.0938 139.063 58.0938C139.406 58.0938 139.746 58.025 140.063 57.8915C140.379 57.7579 140.666 57.5624 140.906 57.3164C141.146 57.0703 141.334 56.7788 141.459 56.4589C141.584 56.139 141.644 55.7973 141.636 55.4538V45.1552C141.636 44.8172 141.569 44.4824 141.439 44.1701C141.31 43.8578 141.12 43.5742 140.881 43.3353C140.642 43.0964 140.358 42.907 140.045 42.7779C139.733 42.6489 139.398 42.5827 139.06 42.5831C137.223 42.5809 135.462 41.8501 134.163 40.551C132.865 39.252 132.134 37.4908 132.133 35.6539C132.133 34.9713 131.861 34.3166 131.379 33.834C130.896 33.3513 130.241 33.0801 129.559 33.0801H105.609C104.927 33.0801 104.272 33.3513 103.789 33.834C103.307 34.3166 103.035 34.9713 103.035 35.6539C103.034 37.4908 102.303 39.252 101.004 40.551C99.7058 41.8501 97.9448 42.5809 96.1079 42.5831C95.77 42.5829 95.4353 42.6493 95.1231 42.7784C94.8108 42.9076 94.5271 43.097 94.288 43.3359C94.049 43.5747 93.8594 43.8584 93.73 44.1705C93.6007 44.4827 93.5341 44.8173 93.5341 45.1552V96.3898H88.5089ZM77.9689 96.3898L75.3101 85.9671C75.2271 85.641 75.0809 85.3343 74.88 85.0644L62.793 39.9583L83.363 34.4452V43.9805L81.6392 44.4429C81.3119 44.5299 81.0049 44.6807 80.736 44.8866C80.4671 45.0925 80.2415 45.3495 80.0722 45.6428C79.9029 45.9361 79.7932 46.26 79.7493 46.5958C79.7055 46.9317 79.7284 47.2729 79.8168 47.5998C80.2905 49.3748 80.0407 51.2653 79.1222 52.8563C78.2036 54.4473 76.6914 55.6089 74.9174 56.0862C74.591 56.1736 74.285 56.3245 74.0169 56.5302C73.7488 56.736 73.524 56.9925 73.3552 57.2853C73.1864 57.578 73.077 57.9012 73.0332 58.2362C72.9894 58.5713 73.0122 58.9117 73.1001 59.238L83.1301 96.3796L77.9689 96.3898ZM83.3647 77.5062L78.6676 60.1169C80.594 59.121 82.2157 57.6233 83.3613 55.7819V77.496L83.3647 77.5062ZM117.589 92.2384C116.171 92.2384 114.785 91.818 113.606 91.0302C112.427 90.2425 111.508 89.1229 110.966 87.8129C110.423 86.503 110.281 85.0616 110.558 83.6709C110.835 82.2803 111.517 81.0029 112.52 80.0003C113.522 78.9977 114.8 78.315 116.191 78.0384C117.581 77.7617 119.023 77.9037 120.333 78.4463C121.642 78.9889 122.762 79.9078 123.55 81.0867C124.338 82.2656 124.758 83.6516 124.758 85.0695C124.756 86.9701 124 88.7923 122.656 90.1362C121.312 91.4801 119.49 92.2362 117.589 92.2384ZM71.5565 145.788C69.667 145.788 67.8415 145.104 66.4174 143.862L60.2022 138.443V102.85L71.4375 91.6145L73.4775 99.5858C73.6191 100.14 73.9411 100.631 74.3926 100.981C74.8442 101.332 75.3997 101.522 75.9714 101.522H126.563C127.519 101.522 128.435 101.902 129.111 102.577C129.786 103.253 130.166 104.169 130.166 105.124C130.166 106.08 129.786 106.996 129.111 107.672C128.435 108.347 127.519 108.727 126.563 108.727H100.64C99.9575 108.727 99.3028 108.998 98.8201 109.481C98.3375 109.963 98.0663 110.618 98.0663 111.301C98.0663 111.983 98.3375 112.638 98.8201 113.12C99.3028 113.603 99.9575 113.874 100.64 113.874H134.615C135.57 113.874 136.486 114.254 137.162 114.929C137.837 115.605 138.217 116.521 138.217 117.477C138.217 118.432 137.837 119.348 137.162 120.024C136.486 120.699 135.57 121.079 134.615 121.079H100.64C99.9575 121.079 99.3028 121.35 98.8201 121.833C98.3375 122.315 98.0663 122.97 98.0663 123.653C98.0663 124.335 98.3375 124.99 98.8201 125.473C99.3028 125.955 99.9575 126.227 100.64 126.227H129.108C130.064 126.227 130.98 126.606 131.656 127.282C132.331 127.957 132.711 128.873 132.711 129.829C132.711 130.784 132.331 131.7 131.656 132.376C130.98 133.052 130.064 133.431 129.108 133.431H100.64C100.297 133.422 99.9549 133.482 99.635 133.608C99.3151 133.733 99.0236 133.921 98.7775 134.161C98.5315 134.401 98.336 134.687 98.2024 135.004C98.0689 135.32 98.0001 135.661 98.0001 136.004C98.0001 136.348 98.0689 136.688 98.2024 137.004C98.336 137.321 98.5315 137.607 98.7775 137.847C99.0236 138.087 99.3151 138.275 99.635 138.4C99.9549 138.526 100.297 138.586 100.64 138.577H120.331C121.287 138.577 122.203 138.957 122.878 139.632C123.554 140.308 123.934 141.224 123.934 142.179C123.934 143.135 123.554 144.051 122.878 144.727C122.203 145.402 121.287 145.782 120.331 145.782L71.5565 145.788ZM40.1303 130.915C40.8114 130.915 41.4648 130.645 41.9472 130.164C42.4297 129.683 42.7018 129.031 42.7041 128.35V98.6984H52.4825C53.1649 98.6989 53.8193 98.9702 54.3019 99.4528C54.7845 99.9353 55.0558 100.59 55.0563 101.272V143.216C55.0554 143.898 54.7839 144.552 54.3013 145.035C53.8188 145.517 53.1647 145.788 52.4825 145.788H27.7798C27.0976 145.788 26.4434 145.517 25.9609 145.035C25.4784 144.552 25.2069 143.898 25.206 143.216V101.272C25.2064 100.59 25.4777 99.9353 25.9603 99.4528C26.4429 98.9702 27.0973 98.6989 27.7798 98.6984H37.5582V128.35C37.5582 129.032 37.8291 129.687 38.3114 130.169C38.7937 130.652 39.4479 130.923 40.1303 130.924V130.915Z" fill="#4A4E79"/>
</svg>
