<svg width="50" height="50" viewBox="0 0 50 50" fill="none" xmlns="http://www.w3.org/2000/svg">
<path d="M25 50C38.7854 50 50 38.7854 50 25C50 11.2146 38.7855 -9.80407e-07 25 -2.18557e-06C11.2146 -3.39073e-06 3.39073e-06 11.2145 2.18557e-06 25C9.80407e-07 38.7854 11.2146 50 25 50ZM17.2771 23.527L27.6938 13.1104C28.1 12.7042 28.6333 12.5 29.1667 12.5C29.7 12.5 30.2334 12.7042 30.6397 13.1104C31.4542 13.925 31.4542 15.2417 30.6397 16.0562L21.6958 25L30.6396 33.9437C31.4541 34.7583 31.4541 36.075 30.6396 36.8895C29.825 37.7041 28.5083 37.7041 27.6938 36.8895L17.2771 26.4728C16.4625 25.6583 16.4625 24.3417 17.2771 23.527Z" fill="white" fill-opacity="0.3"/>
</svg>
