<svg width="75" height="75" viewBox="0 0 75 75" fill="none" xmlns="http://www.w3.org/2000/svg">
<g clip-path="url(#clip0)">
<path d="M31.5839 26.4722H39.3137V30.9496C39.3137 31.7587 39.9697 32.4146 40.7786 32.4146H43.3267C41.9973 34.106 40.5502 36.3442 40.5502 38.0726C40.5502 41.3059 43.1807 43.9363 46.4139 43.9363C49.6471 43.9363 52.2776 41.3058 52.2776 38.0726C52.2776 36.3442 50.8305 34.106 49.5012 32.4146H52.0492C52.8582 32.4146 53.5142 31.7587 53.5142 30.9496V26.4722H61.2439C63.9847 26.4722 66.2146 24.2424 66.2146 21.5016V1.46497C66.2146 0.655866 65.5585 0 64.7496 0H52.8205C52.0116 0 51.3555 0.655866 51.3555 1.46497C51.3555 2.27407 52.0116 2.92993 52.8205 2.92993H63.2846V21.5016C63.2846 22.6269 62.3692 23.5423 61.2439 23.5423H31.5839C30.4587 23.5423 29.5432 22.6269 29.5432 21.5016V2.92993H39.5753C40.3843 2.92993 41.0403 2.27407 41.0403 1.46497C41.0403 0.655866 40.3843 0 39.5753 0H28.0782C27.2691 0 26.6133 0.655866 26.6133 1.46497V21.5016C26.6133 24.2424 28.8431 26.4722 31.5839 26.4722ZM46.4141 41.0063C44.7963 41.0063 43.4803 39.6902 43.4803 38.0726C43.4803 37.177 44.8589 35.0947 46.4141 33.2757C47.9693 35.0947 49.3478 37.177 49.3478 38.0726C49.3478 39.6902 48.0318 41.0063 46.4141 41.0063ZM50.5844 26.4722V29.4847H42.2435V26.4722H50.5844Z" fill="#FBFBFB"/>
<path d="M44.8719 2.02456C45.1095 2.60411 45.7165 2.97547 46.3407 2.92508C46.945 2.8763 47.4655 2.44911 47.6327 1.86679C47.7995 1.28549 47.5811 0.639146 47.0899 0.283598C46.6094 -0.0640386 45.9564 -0.0892361 45.4516 0.221923C44.8502 0.592267 44.6005 1.37295 44.8719 2.02456Z" fill="#FBFBFB"/>
<path d="M72.9649 52.7961C72.3283 51.4204 71.1361 50.364 69.6937 49.8977C69.1442 49.7201 68.574 49.6333 68.0057 49.6347C67.9392 49.4769 67.8655 49.3221 67.7845 49.1706C67.0706 47.8344 65.8761 46.8668 64.4208 46.4459C62.9705 46.0267 61.4496 46.2046 60.1359 46.9468L59.128 47.4931C58.4042 46.2665 57.2606 45.3784 55.8836 44.9801C54.4331 44.5608 52.9125 44.7385 51.5985 45.481L46.0913 48.4661C45.8217 48.4223 45.5471 48.3986 45.2691 48.3962L32.5487 47.5911C28.514 47.3355 24.5131 47.8218 20.6573 49.0354C20.6233 49.0461 20.5896 49.0581 20.5563 49.0713L2.45184 56.2625C1.89383 56.4842 1.52759 57.0237 1.52759 57.6241V71.9536C1.52759 72.4105 1.74074 72.8412 2.10405 73.1183C2.46722 73.3956 2.93908 73.4874 3.3796 73.3664L16.7483 69.7048L32.2901 74.1032C34.4129 74.7039 36.5958 74.9999 38.7726 74.9999C43.0743 74.9999 47.3517 73.8442 51.0899 71.6012L70.8217 59.7622C73.2165 58.3253 74.1379 55.3305 72.9649 52.7961ZM61.5445 49.5159C61.5533 49.5112 61.5619 49.5064 61.5706 49.5014C62.1944 49.1467 62.9175 49.0612 63.6069 49.2604C64.2578 49.4487 64.7985 49.8678 65.1414 50.4467L45.7081 61.3689L38.3298 59.3206C40.854 59.3211 43.3224 59.3218 45.1017 59.323H45.1051C47.317 59.323 49.2988 57.995 50.1545 55.9395L50.1925 55.8485C50.2238 55.7731 50.2534 55.6972 50.2812 55.6209L61.5445 49.5159ZM53.0068 48.0502C53.0156 48.0455 53.0242 48.0407 53.0329 48.0357C53.6568 47.6807 54.3802 47.5955 55.0693 47.7946C55.6861 47.973 56.204 48.3587 56.5484 48.8912L50.3803 52.2346C50.2285 51.7292 50.0011 51.2424 49.6998 50.7907C49.5416 50.5537 49.3665 50.3317 49.1768 50.1261L53.0068 48.0502ZM69.3144 57.2498L49.5827 69.0887C44.6429 72.0525 38.631 72.8525 33.0881 71.284L17.1537 66.7744C17.0233 66.7375 16.8889 66.719 16.7547 66.719C16.6247 66.719 16.4944 66.7363 16.3677 66.771L4.45752 70.0332V58.6183L21.5874 51.8141C25.0824 50.7208 28.7081 50.2837 32.3635 50.515C32.3635 50.515 45.1887 51.3259 45.2195 51.3259H45.2226C46.0563 51.3259 46.8 51.7236 47.263 52.4173C47.7265 53.1117 47.8084 53.952 47.4877 54.7221L47.4498 54.8131C47.0501 55.7731 46.13 56.3932 45.1051 56.3932H45.1033C39.6173 56.3898 27.5725 56.3898 27.5725 56.3898C26.8399 56.3898 26.2199 56.9311 26.1209 57.657C26.022 58.3829 26.4747 59.0703 27.1806 59.2663L45.5069 64.354C45.8802 64.4575 46.2791 64.4093 46.6165 64.2195L66.78 52.8869C67.4006 52.5383 68.1152 52.4671 68.7923 52.6857C69.4694 52.9047 70.007 53.3809 70.3059 54.0267C70.8486 55.1992 70.4222 56.585 69.3144 57.2498Z" fill="#FBFBFB"/>
<path d="M39.1284 10.3V16.1723C39.1284 16.9814 39.7844 17.6373 40.5934 17.6373H42.0126V19.0567C42.0126 19.8658 42.6687 20.5217 43.4776 20.5217H49.3501C50.159 20.5217 50.815 19.8658 50.815 19.0567V17.6373H52.2343C53.0433 17.6373 53.6993 16.9814 53.6993 16.1723V10.3C53.6993 9.49092 53.0433 8.83506 52.2343 8.83506H50.815V7.41565C50.815 6.60655 50.159 5.95068 49.3501 5.95068H43.4776C42.6687 5.95068 42.0126 6.60655 42.0126 7.41565V8.83506H40.5934C39.7844 8.83506 39.1284 9.49092 39.1284 10.3ZM42.0584 11.765H43.4776C44.2866 11.765 44.9426 11.1091 44.9426 10.3V8.88062H47.8851V10.3C47.8851 11.1091 48.5411 11.765 49.3501 11.765H50.7693V14.7074H49.3501C48.5411 14.7074 47.8851 15.3632 47.8851 16.1723V17.5918H44.9426V16.1723C44.9426 15.3632 44.2866 14.7074 43.4776 14.7074H42.0584V11.765Z" fill="#FBFBFB"/>
</g>
<defs>
<clipPath id="clip0">
<rect width="75" height="75" fill="white"/>
</clipPath>
</defs>
</svg>
