<svg width="75" height="75" viewBox="0 0 75 75" fill="none" xmlns="http://www.w3.org/2000/svg">
<path d="M37.4999 0C16.8225 0 0 16.8225 0 37.4999C0 58.1773 16.8225 74.9998 37.4999 74.9998C58.1773 74.9998 74.9998 58.1773 74.9998 37.4999C74.9998 16.8225 58.1775 0 37.4999 0ZM37.4999 72.8946C17.9833 72.8946 2.10512 57.0167 2.10512 37.4999C2.10512 17.9833 17.9833 2.10512 37.4999 2.10512C57.0164 2.10512 72.8946 17.9833 72.8946 37.4999C72.8949 57.0167 57.0167 72.8946 37.4999 72.8946Z" fill="#FBFBFB"/>
<path d="M37.4568 8.25977C35.3215 8.25977 33.193 8.49109 31.1307 8.9472C30.7892 9.02252 30.5076 9.26297 30.3792 9.58786C30.2505 9.91322 30.2919 10.2809 30.4896 10.5693C35.9297 18.5168 38.8053 27.8297 38.8053 37.5008C38.8053 47.1706 35.9297 56.4824 30.4896 64.4302C30.2919 64.7186 30.2508 65.0865 30.3792 65.4116C30.5076 65.7368 30.7892 65.977 31.1307 66.0523C33.193 66.5084 35.3215 66.7397 37.4568 66.7397C53.5806 66.7397 66.6981 53.6232 66.6981 37.5006C66.6978 21.3775 53.5804 8.25977 37.4568 8.25977ZM37.4568 64.6351C35.9956 64.6351 34.5387 64.5186 33.1072 64.288C38.2177 56.2883 40.9101 47.0623 40.9101 37.5013C40.9101 27.9389 38.2175 18.7124 33.1072 10.7125C34.5387 10.4818 35.9956 10.3654 37.4568 10.3654C52.4198 10.3654 64.593 22.5386 64.593 37.5015C64.5927 52.4628 52.4195 64.6351 37.4568 64.6351Z" fill="#FBFBFB"/>
<path d="M9.35418 36.3659H35.3721C35.66 36.3659 35.9353 36.2478 36.1341 36.0394C36.3329 35.8307 36.4375 35.55 36.4234 35.2623C35.994 26.3874 32.997 17.9052 27.7564 10.733C27.4718 10.3441 26.9593 10.1983 26.5125 10.378C21.5225 12.393 17.1827 15.7521 13.9623 20.0917C10.6816 24.5124 8.72522 29.7481 8.30467 35.2326C8.28198 35.5248 8.38255 35.8132 8.58184 36.0281C8.78112 36.2436 9.0611 36.3659 9.35418 36.3659ZM15.6529 21.3463C18.4775 17.5398 22.2291 14.5466 26.5406 12.6506C31.0269 19.0422 33.6788 26.4756 34.2535 34.2608H10.5146C11.071 29.5858 12.8356 25.1426 15.6529 21.3463Z" fill="#FBFBFB"/>
<path d="M36.1343 38.9606C35.9355 38.7522 35.6604 38.6343 35.3722 38.6343H9.35437C9.06129 38.6343 8.78131 38.7564 8.58203 38.9716C8.38274 39.1865 8.2824 39.4749 8.30486 39.7671C8.72541 45.2514 10.6815 50.4873 13.9625 54.908C17.1828 59.2476 21.5227 62.6064 26.5125 64.6217C26.6409 64.6734 26.7742 64.6982 26.9066 64.6982C27.2348 64.6982 27.5541 64.5443 27.7568 64.2667C32.9972 57.0943 35.9944 48.6121 36.4239 39.7374C36.4377 39.4499 36.3331 39.1692 36.1343 38.9606ZM26.5408 62.3496C22.2293 60.4534 18.4777 57.4604 15.6531 53.6538C12.8358 49.8574 11.0712 45.4142 10.5148 40.7394H34.2535C33.6788 48.5244 31.0268 55.9575 26.5408 62.3496Z" fill="#FBFBFB"/>
</svg>
