<svg width="170" height="170" viewBox="0 0 170 170" fill="none" xmlns="http://www.w3.org/2000/svg">
<path d="M155.314 4.25C158.081 4.25315 160.733 5.3537 162.69 7.3102C164.646 9.2667 165.747 11.9194 165.75 14.6863V155.314C165.747 158.081 164.646 160.733 162.69 162.69C160.733 164.646 158.081 165.747 155.314 165.75H14.6863C11.9194 165.747 9.2667 164.646 7.3102 162.69C5.3537 160.733 4.25315 158.081 4.25 155.314V14.6863C4.25315 11.9194 5.3537 9.2667 7.3102 7.3102C9.2667 5.3537 11.9194 4.25315 14.6863 4.25H155.314ZM155.314 0H14.6863C10.7913 0 7.05573 1.5473 4.30152 4.30152C1.5473 7.05573 0 10.7913 0 14.6863L0 155.314C0 159.209 1.5473 162.944 4.30152 165.698C7.05573 168.453 10.7913 170 14.6863 170H155.314C159.209 170 162.944 168.453 165.698 165.698C168.453 162.944 170 159.209 170 155.314V14.6863C170 10.7913 168.453 7.05573 165.698 4.30152C162.944 1.5473 159.209 0 155.314 0V0Z" fill="#4A4E79"/>
<path d="M69.1373 73.03L58.48 68.287V65.1471C60.4923 63.9751 62.2535 62.4176 63.6628 60.5637C65.0721 58.7098 66.1017 56.5961 66.6927 54.3436H67.2639C69.011 54.3436 70.6865 53.6496 71.9219 52.4142C73.1573 51.1788 73.8514 49.5032 73.8514 47.7561C73.8514 46.009 73.1573 44.3334 71.9219 43.098C70.6865 41.8626 69.011 41.1686 67.2639 41.1686V39.3241L71.5462 26.4993C71.6713 26.11 71.6884 25.6941 71.5956 25.2959C71.5027 24.8977 71.3035 24.5321 71.0192 24.2383L66.64 19.8472C66.2213 19.4426 65.6632 19.2144 65.0811 19.2097H34.34C33.7578 19.2144 33.1997 19.4426 32.7811 19.8472L28.39 24.2383C28.1056 24.5321 27.9064 24.8977 27.8136 25.2959C27.7207 25.6941 27.7378 26.11 27.863 26.4993L32.13 39.3241V41.1686C31.2649 41.1686 30.4083 41.339 29.609 41.6701C28.8098 42.0011 28.0836 42.4863 27.4719 43.098C26.8602 43.7097 26.375 44.4359 26.0439 45.2352C25.7129 46.0344 25.5425 46.891 25.5425 47.7561C25.5425 48.6212 25.7129 49.4778 26.0439 50.277C26.375 51.0763 26.8602 51.8025 27.4719 52.4142C28.0836 53.0259 28.8098 53.5111 29.609 53.8422C30.4083 54.1732 31.2649 54.3436 32.13 54.3436H32.7012C33.2921 56.5961 34.3217 58.7098 35.731 60.5637C37.1403 62.4176 38.9016 63.9751 40.9139 65.1471V68.287L30.2634 73.03C27.5515 74.2388 25.2478 76.2073 23.6308 78.6974C22.0138 81.1875 21.1526 84.0927 21.1514 87.0618V120.212C21.1514 122.541 22.0766 124.775 23.7236 126.422C25.3706 128.069 27.6044 128.994 29.9336 128.994V148.763C29.9336 149.346 30.165 149.904 30.5769 150.316C30.9888 150.728 31.5474 150.96 32.13 150.96H67.2707C67.559 150.96 67.8445 150.903 68.1109 150.792C68.3773 150.682 68.6193 150.52 68.8232 150.316C69.027 150.112 69.1886 149.87 69.2988 149.604C69.409 149.337 69.4656 149.052 69.4654 148.763V129.001C70.6188 129.001 71.761 128.774 72.8267 128.333C73.8924 127.892 74.8607 127.245 75.6764 126.429C76.4921 125.614 77.1391 124.645 77.5806 123.58C78.022 122.514 78.2493 121.372 78.2493 120.219V87.0686C78.2494 84.0983 77.3888 81.1917 75.7717 78.7003C74.1546 76.2088 71.8502 74.2393 69.1373 73.03ZM67.2707 45.5597C67.8424 45.5756 68.3854 45.8139 68.7841 46.2239C69.1829 46.6339 69.406 47.1833 69.406 47.7553C69.406 48.3272 69.1829 48.8766 68.7841 49.2866C68.3854 49.6966 67.8424 49.9349 67.2707 49.9508V45.5597ZM32.13 49.9508C31.8365 49.959 31.5444 49.9082 31.2709 49.8016C30.9973 49.6949 30.748 49.5345 30.5375 49.3298C30.3271 49.1251 30.1598 48.8803 30.0456 48.6099C29.9313 48.3394 29.8725 48.0488 29.8725 47.7553C29.8725 47.4617 29.9313 47.1711 30.0456 46.9006C30.1598 46.6302 30.3271 46.3854 30.5375 46.1807C30.748 45.976 30.9973 45.8156 31.2709 45.709C31.5444 45.6023 31.8365 45.5515 32.13 45.5597V49.9508ZM32.4377 26.3905L35.2257 23.6008H64.175L66.963 26.3905L66.4139 27.9936H32.9936L32.4377 26.3905ZM34.442 32.3847H64.9655L63.4933 36.7758H35.9142L34.442 32.3847ZM62.5056 41.1686C62.0471 42.451 61.2042 43.5607 60.092 44.3465C58.9797 45.1323 57.6522 45.556 56.2904 45.5597H43.1154C41.7538 45.5556 40.4267 45.1318 39.3147 44.346C38.2028 43.5602 37.3603 42.4507 36.9019 41.1686H62.5056ZM36.5279 49.9508V47.6898C38.4142 49.1494 40.7303 49.9444 43.1154 49.9508H56.2904C58.6756 49.945 60.9918 49.15 62.8779 47.6898V49.9508C62.8779 53.445 61.4898 56.7961 59.019 59.2669C56.5482 61.7377 53.1971 63.1258 49.7029 63.1258C46.2086 63.1258 42.8575 61.7377 40.3867 59.2669C37.9159 56.7961 36.5279 53.445 36.5279 49.9508ZM45.3118 68.1408V66.9508C48.1902 67.7124 51.2172 67.7124 54.0957 66.9508V68.1408L49.7029 69.613L45.3118 68.1408ZM45.6416 72.8838L43.1375 75.3658L40.9428 73.0827L43.2259 72.0627L45.6416 72.8838ZM56.1816 72.0712L58.4647 73.0912L56.27 75.3573L53.7659 72.8753L56.1816 72.0712ZM29.9404 124.61C28.7769 124.606 27.6621 124.142 26.8394 123.32C26.0166 122.497 25.5529 121.382 25.5493 120.219H29.9404V124.61ZM65.0743 146.569H51.8993V129.001H47.5082V146.569H34.34V122.413H65.0743V146.569ZM69.4654 124.61V120.219H73.8582C73.8546 121.382 73.3906 122.497 72.5675 123.32C71.7444 124.143 70.6292 124.607 69.4654 124.61ZM73.8582 115.826H69.4654V85.0847H65.0743V118.022H34.34V85.0847H29.9404V115.826H25.5493V87.0618C25.5522 84.9389 26.1695 82.8622 27.3267 81.0825C28.4838 79.3027 30.1314 77.8959 32.0705 77.0318L36.6826 74.9918L41.5344 80.0204C41.7341 80.2345 41.9757 80.4053 42.2442 80.5222C42.5126 80.6392 42.8022 80.6998 43.095 80.7004H43.1154C43.6972 80.6917 44.2544 80.4641 44.676 80.0629L49.7029 75.0122L54.74 80.0561C55.1611 80.4569 55.7176 80.6845 56.2989 80.6936H56.321C56.6135 80.6932 56.9029 80.6326 57.1711 80.5157C57.4393 80.3987 57.6805 80.2278 57.8799 80.0136L62.73 74.9833L67.3421 77.0233C69.2812 77.8873 70.9287 79.2942 72.0859 81.074C73.243 82.8537 73.8603 84.9304 73.8633 87.0533L73.8582 115.826Z" fill="#4A4E79"/>
<path d="M67.2706 151.3H32.1299C31.4575 151.299 30.8128 151.031 30.3374 150.556C29.8619 150.081 29.5944 149.436 29.5935 148.763V129.336C27.2356 129.245 25.0044 128.244 23.3674 126.545C21.7303 124.845 20.8143 122.578 20.8113 120.219V87.0688C20.8149 84.0346 21.6962 81.0662 23.3489 78.5216C25.0016 75.977 27.355 73.9647 30.1256 72.7276L40.5738 68.0747V65.3547C36.5856 62.9888 33.6703 59.1686 32.441 54.6974H32.1299C30.316 54.7066 28.5708 54.004 27.2693 52.7405C25.9678 51.477 25.2138 49.7534 25.1693 47.94C25.1248 46.1266 25.7933 44.3681 27.0312 43.0423C28.2691 41.7164 29.9777 40.929 31.7899 40.8492V39.3923L27.5399 26.6083C27.3941 26.1599 27.3734 25.6803 27.48 25.2211C27.5867 24.7618 27.8166 24.3404 28.1451 24.0022L32.5396 19.606C33.0196 19.1398 33.6606 18.8762 34.3297 18.8699H65.0742C65.7447 18.8731 66.3881 19.1356 66.8694 19.6026L71.2656 23.9988C71.5947 24.3366 71.8255 24.7577 71.9331 25.217C72.0406 25.6762 72.0208 26.1561 71.8759 26.6049L67.6106 39.3787V40.8356C69.4227 40.9154 71.1313 41.7028 72.3692 43.0287C73.6072 44.3545 74.2757 46.113 74.2311 47.9264C74.1866 49.7398 73.4326 51.4634 72.1311 52.7269C70.8296 53.9904 69.0845 54.693 67.2706 54.6838H66.9595C65.7285 59.1561 62.8106 62.9765 58.8199 65.3411V68.0611L69.2681 72.714C72.0386 73.9511 74.3921 75.9634 76.0448 78.508C77.6974 81.0526 78.5787 84.021 78.5824 87.0552V120.205C78.5793 122.565 77.6631 124.832 76.0257 126.532C74.3883 128.231 72.1567 129.231 69.7985 129.322V148.763C69.798 149.435 69.5318 150.078 69.0581 150.553C68.5844 151.029 67.9417 151.297 67.2706 151.3ZM32.1299 41.5088C30.4729 41.5088 28.8839 42.167 27.7122 43.3386C26.5406 44.5103 25.8824 46.0993 25.8824 47.7563C25.8824 49.4132 26.5406 51.0023 27.7122 52.1739C28.8839 53.3456 30.4729 54.0038 32.1299 54.0038H32.9629L33.0292 54.2571C33.6032 56.4687 34.6108 58.5442 35.9935 60.3632C37.3762 62.1822 39.1064 63.7084 41.0838 64.8532L41.2538 64.9518V68.5099L30.4027 73.3413C27.7519 74.5252 25.5002 76.4507 23.919 78.8855C22.3378 81.3203 21.4947 84.1605 21.4913 87.0637V120.214C21.494 122.452 22.3843 124.598 23.9669 126.18C25.5496 127.763 27.6953 128.653 29.9335 128.656H30.2735V148.763C30.2739 149.256 30.4697 149.728 30.8177 150.076C31.1657 150.424 31.6377 150.619 32.1299 150.62H67.2706C67.7625 150.619 68.234 150.423 68.5816 150.075C68.9293 149.727 69.1248 149.255 69.1253 148.763V128.661H69.4653C71.7038 128.659 73.8499 127.769 75.4329 126.186C77.0159 124.603 77.9065 122.457 77.9092 120.219V87.0688C77.9054 84.1659 77.0621 81.3261 75.481 78.8916C73.8998 76.4571 71.6483 74.5319 68.9978 73.3481L58.1399 68.5099V64.9518L58.3099 64.8532C60.2872 63.7084 62.0175 62.1822 63.4002 60.3632C64.7829 58.5442 65.7905 56.4687 66.3645 54.2571L66.4308 54.0038H67.2638C68.9207 54.0038 70.5098 53.3456 71.6814 52.1739C72.8531 51.0023 73.5113 49.4132 73.5113 47.7563C73.5113 46.0993 72.8531 44.5103 71.6814 43.3386C70.5098 42.167 68.9207 41.5088 67.2638 41.5088H66.9238V39.2699L71.2299 26.3924C71.3348 26.0628 71.3485 25.7109 71.2695 25.3742C71.1905 25.0374 71.0217 24.7284 70.7811 24.4799L66.3934 20.0922C66.0387 19.7497 65.5655 19.5572 65.0725 19.555H34.3399C33.8458 19.5579 33.3719 19.7516 33.0173 20.0956L28.6228 24.4799C28.382 24.7293 28.2135 25.0394 28.1353 25.3772C28.0572 25.715 28.0723 26.0676 28.1791 26.3975L32.4699 39.2699V41.5105L32.1299 41.5088ZM65.4074 146.909H51.5524V129.341H47.8481V146.909H33.9999V122.073H65.4142L65.4074 146.909ZM52.2324 146.229H64.7274V122.753H34.6799V146.229H47.1749V128.661H52.246L52.2324 146.229ZM69.1253 124.95V119.879H74.1981V120.219C74.1905 121.471 73.6896 122.67 72.804 123.556C71.9184 124.441 70.7194 124.942 69.467 124.95H69.1253ZM69.8053 120.557V124.253C70.7568 124.167 71.648 123.75 72.3237 123.075C72.9994 122.4 73.4167 121.509 73.5028 120.557H69.8053ZM30.2803 124.95H29.9403C28.6879 124.942 27.4889 124.441 26.6033 123.556C25.7176 122.67 25.2168 121.471 25.2092 120.219V119.879H30.2803V124.95ZM25.9045 120.557C25.9905 121.508 26.4075 122.399 27.0829 123.074C27.7582 123.75 28.6491 124.167 29.6003 124.253V120.559L25.9045 120.557ZM65.4142 118.361H33.9999V85.4249H30.2803V116.166H25.2092V87.0603C25.2131 84.8713 25.8499 82.7302 27.0428 80.8948C28.2357 79.0594 29.9339 77.6081 31.9327 76.7158L36.7624 74.5772L41.7791 79.7758C41.947 79.9572 42.1505 80.1022 42.3769 80.2016C42.6032 80.3011 42.8476 80.3529 43.0949 80.3538H43.1153C43.6099 80.3455 44.0833 80.1513 44.4413 79.8098L49.7113 74.5245L54.9813 79.8166C55.3392 80.1551 55.8113 80.3468 56.3039 80.3538H56.3209C56.5666 80.3529 56.8096 80.3016 57.0348 80.203C57.2599 80.1045 57.4625 79.9608 57.6299 79.7809L62.6517 74.5772L67.4814 76.7158C69.4802 77.6081 71.1784 79.0594 72.3713 80.8948C73.5642 82.7302 74.2009 84.8713 74.2049 87.0603V116.166H69.1253V85.4249H65.4142V118.361ZM34.6731 117.681H64.7342V84.7449H69.8053V115.486H73.5181V87.0603C73.5138 85.0027 72.915 82.9902 71.7936 81.265C70.6722 79.5398 69.0761 78.1755 67.1975 77.3363L62.8047 75.3915L58.1161 80.2484C57.8853 80.4954 57.6063 80.6926 57.2964 80.8276C56.9865 80.9627 56.6522 81.0329 56.3141 81.0338H56.2903C55.6222 81.025 54.9821 80.7639 54.4985 80.3028L49.7045 75.4884L44.9156 80.296C44.432 80.7601 43.7905 81.0237 43.1204 81.0338H43.0949C42.7551 81.0323 42.4192 80.9611 42.1081 80.8245C41.797 80.688 41.5172 80.489 41.2861 80.2399L36.6026 75.3881L32.2081 77.3329C30.3296 78.1726 28.7338 79.5374 27.6128 81.2628C26.4917 82.9883 25.8932 85.0009 25.8892 87.0586V115.483H29.6003V84.7449H34.6799L34.6731 117.681ZM56.2699 75.842L53.13 72.7293L56.19 71.6991L59.0375 72.9588L56.2699 75.842ZM54.3999 73.0234L56.2699 74.873L57.89 73.1883L56.1713 72.4284L54.3999 73.0234ZM43.1357 75.842L40.3647 72.952L43.2122 71.6923L46.2722 72.7225L43.1357 75.842ZM41.5275 73.1883L43.1476 74.873L45.0176 73.0234L43.2496 72.4284L41.5275 73.1883ZM49.7079 69.9583L44.9751 68.3722V66.5022L45.4018 66.6144C48.2234 67.361 51.1907 67.361 54.0123 66.6144L54.439 66.5022V68.3722L49.7079 69.9583ZM45.6551 67.8826L49.7079 69.2426L53.759 67.8826V67.3726C51.0947 68.005 48.3194 68.005 45.6551 67.3726V67.8826ZM49.7079 63.4626C46.1247 63.4585 42.6895 62.0333 40.1558 59.4997C37.6221 56.966 36.1969 53.5307 36.1929 49.9476V46.9964L36.7403 47.4214C38.569 48.8317 40.811 49.6011 43.1204 49.611H56.2937C58.6009 49.6028 60.8414 48.8364 62.6704 47.4299L63.2195 47.0049V49.9595C63.2132 53.5412 61.787 56.9742 59.2536 59.5061C56.7201 62.0379 53.2862 63.4619 49.7045 63.466L49.7079 63.4626ZM36.8729 48.353V49.9476C36.8729 53.3516 38.2251 56.6163 40.6322 59.0233C43.0392 61.4303 46.3038 62.7826 49.7079 62.7826C53.1119 62.7826 56.3766 61.4303 58.7836 59.0233C61.1906 56.6163 62.5429 53.3516 62.5429 49.9476V48.353C60.6987 49.6039 58.5238 50.2774 56.2954 50.2876H43.1153C40.8877 50.279 38.7131 49.6067 36.8695 48.3564L36.8729 48.353ZM67.274 50.2876H66.934V45.2199H67.274C67.9351 45.237 68.5634 45.5116 69.0249 45.9853C69.4864 46.4589 69.7447 47.0941 69.7447 47.7554C69.7447 48.4168 69.4864 49.0519 69.0249 49.5256C68.5634 49.9992 67.9351 50.2739 67.274 50.291V50.2876ZM67.614 45.9271V49.577C68.0399 49.4976 68.4247 49.2716 68.7016 48.9383C68.9785 48.605 69.1301 48.1853 69.1301 47.752C69.1301 47.3187 68.9785 46.899 68.7016 46.5657C68.4247 46.2324 68.0399 46.0065 67.614 45.9271ZM32.4699 50.291H32.1299C31.7914 50.2997 31.4546 50.2406 31.1393 50.1172C30.824 49.9937 30.5366 49.8083 30.2941 49.572C30.0516 49.3357 29.8588 49.0532 29.7272 48.7412C29.5956 48.4292 29.5278 48.094 29.5278 47.7554C29.5278 47.4168 29.5956 47.0816 29.7272 46.7696C29.8588 46.4577 30.0516 46.1752 30.2941 45.9389C30.5366 45.7025 30.824 45.5172 31.1393 45.3937C31.4546 45.2702 31.7914 45.2111 32.1299 45.2199H32.4699V50.291ZM31.7899 45.9305C31.3639 46.0099 30.9791 46.2358 30.7022 46.5691C30.4253 46.9024 30.2737 47.3221 30.2737 47.7554C30.2737 48.1887 30.4253 48.6084 30.7022 48.9417C30.9791 49.275 31.3639 49.501 31.7899 49.5804V45.9305ZM56.292 45.8999H43.1153C41.684 45.8942 40.2892 45.448 39.1203 44.6219C37.9515 43.7958 37.0653 42.63 36.5822 41.2827L36.4122 40.8288H62.9883L62.8183 41.2827C62.3355 42.6289 61.4504 43.794 60.2829 44.62C59.1154 45.4459 57.7221 45.8928 56.292 45.8999ZM37.3999 41.5088C37.8955 42.6113 38.6983 43.5477 39.7122 44.2058C40.7261 44.864 41.9082 45.216 43.117 45.2199H56.2903C57.4982 45.2151 58.6792 44.8625 59.6921 44.2045C60.705 43.5464 61.507 42.6105 62.0023 41.5088H37.3999ZM63.7329 37.116H35.6693L33.9693 32.0449H65.438L63.7329 37.116ZM36.1538 36.436H63.2484L64.4928 32.7249H34.9128L36.1538 36.436ZM66.6518 28.3338H32.7504L32.0534 26.2938L35.093 23.2542H64.3143L67.3539 26.2938L66.6518 28.3338ZM33.2315 27.6538H66.1707L66.5719 26.4808L64.0338 23.941H35.3735L32.8354 26.4808L33.2315 27.6538Z" fill="#4A4E79"/>
<path d="M117.774 129.001H95.8152V133.392H117.774V129.001Z" fill="#4A4E79"/>
<path d="M118.114 133.734H95.4753V128.661H118.114V133.734ZM96.1553 133.054H117.434V129.341H96.1553V133.054Z" fill="#4A4E79"/>
<path d="M117.774 120.219H95.8152V124.61H117.774V120.219Z" fill="#4A4E79"/>
<path d="M118.114 124.95H95.4753V119.879H118.114V124.95ZM96.1553 124.27H117.434V120.559H96.1553V124.27Z" fill="#4A4E79"/>
<path d="M139.74 126.806C139.74 125.503 139.354 124.23 138.63 123.146C137.906 122.063 136.877 121.219 135.673 120.72C134.47 120.222 133.145 120.091 131.867 120.345C130.589 120.6 129.416 121.227 128.494 122.148C127.573 123.069 126.946 124.243 126.692 125.521C126.437 126.799 126.568 128.123 127.066 129.327C127.565 130.531 128.409 131.56 129.493 132.284C130.576 133.007 131.85 133.394 133.152 133.394C134.9 133.394 136.575 132.7 137.811 131.464C139.046 130.229 139.74 128.553 139.74 126.806ZM130.956 126.806C130.956 126.372 131.084 125.947 131.325 125.586C131.567 125.224 131.909 124.942 132.311 124.776C132.712 124.609 133.154 124.566 133.58 124.65C134.006 124.735 134.398 124.944 134.705 125.251C135.012 125.558 135.222 125.949 135.307 126.375C135.391 126.802 135.348 127.243 135.182 127.645C135.016 128.046 134.734 128.389 134.373 128.631C134.012 128.872 133.587 129.001 133.152 129.001C132.864 129.002 132.577 128.946 132.31 128.836C132.043 128.727 131.8 128.565 131.595 128.361C131.39 128.157 131.228 127.915 131.117 127.648C131.006 127.381 130.949 127.095 130.949 126.806H130.956Z" fill="#4A4E79"/>
<path d="M133.146 133.734C131.776 133.732 130.437 133.325 129.299 132.563C128.16 131.801 127.274 130.718 126.75 129.452C126.227 128.187 126.091 126.794 126.359 125.451C126.627 124.107 127.287 122.873 128.256 121.905C129.225 120.937 130.46 120.278 131.803 120.011C133.147 119.745 134.54 119.882 135.805 120.407C137.07 120.931 138.152 121.819 138.913 122.958C139.674 124.097 140.08 125.436 140.08 126.806C140.078 128.644 139.346 130.406 138.046 131.705C136.746 133.003 134.983 133.733 133.146 133.734ZM133.146 120.559C131.91 120.56 130.703 120.928 129.676 121.615C128.65 122.302 127.85 123.278 127.378 124.42C126.907 125.562 126.784 126.818 127.026 128.029C127.268 129.241 127.863 130.353 128.737 131.226C129.611 132.099 130.724 132.694 131.936 132.934C133.148 133.175 134.404 133.051 135.545 132.577C136.686 132.104 137.661 131.304 138.347 130.276C139.034 129.249 139.4 128.042 139.4 126.806C139.398 125.148 138.739 123.559 137.566 122.388C136.393 121.216 134.803 120.558 133.146 120.559ZM133.146 129.341C132.644 129.341 132.153 129.193 131.736 128.914C131.318 128.636 130.993 128.239 130.801 127.776C130.609 127.312 130.558 126.802 130.656 126.31C130.754 125.818 130.996 125.366 131.35 125.011C131.705 124.656 132.157 124.415 132.649 124.317C133.142 124.219 133.652 124.269 134.115 124.461C134.579 124.654 134.975 124.979 135.253 125.396C135.532 125.814 135.681 126.304 135.68 126.806C135.679 127.478 135.412 128.122 134.937 128.597C134.462 129.073 133.818 129.34 133.146 129.341ZM133.146 124.95C132.778 124.949 132.419 125.058 132.114 125.262C131.808 125.466 131.57 125.755 131.429 126.095C131.288 126.434 131.251 126.807 131.323 127.167C131.394 127.528 131.571 127.858 131.831 128.118C132.09 128.378 132.421 128.555 132.781 128.627C133.141 128.699 133.515 128.662 133.854 128.521C134.193 128.381 134.483 128.143 134.687 127.838C134.891 127.532 135 127.173 135 126.806C135 126.314 134.804 125.843 134.457 125.495C134.109 125.147 133.637 124.951 133.146 124.95Z" fill="#4A4E79"/>
<path d="M80.4457 133.394C82.1928 133.394 83.8684 132.7 85.1038 131.464C86.3391 130.229 87.0332 128.553 87.0332 126.806C87.0332 125.059 86.3391 123.384 85.1038 122.148C83.8684 120.913 82.1928 120.219 80.4457 120.219V124.61C80.8312 124.61 81.2098 124.712 81.5435 124.905C81.8771 125.099 82.1541 125.376 82.3464 125.71C82.5388 126.044 82.6399 126.423 82.6395 126.809C82.6391 127.194 82.5372 127.573 82.3441 127.906C82.151 128.24 81.8735 128.517 81.5394 128.709C81.2053 128.902 80.8265 129.003 80.441 129.003C80.0555 129.002 79.6768 128.9 79.3431 128.707C79.0094 128.514 78.7324 128.237 78.54 127.903L74.7388 130.099C75.3188 131.099 76.1511 131.93 77.1525 132.508C78.1539 133.086 79.2894 133.392 80.4457 133.394Z" fill="#4A4E79"/>
<path d="M80.4457 133.734C79.2307 133.729 78.0381 133.407 76.9861 132.799C75.934 132.191 75.0591 131.319 74.4481 130.269L74.2781 129.975L78.6675 127.439L78.8375 127.734C79.0006 128.016 79.2347 128.249 79.5163 128.412C79.7979 128.574 80.1171 128.66 80.4423 128.661C80.9247 128.646 81.3824 128.444 81.7185 128.098C82.0546 127.752 82.2425 127.288 82.2425 126.805C82.2425 126.323 82.0546 125.859 81.7185 125.513C81.3824 125.166 80.9247 124.964 80.4423 124.95H80.1023V119.879H80.4423C82.2796 119.879 84.0416 120.609 85.3408 121.908C86.6399 123.207 87.3698 124.969 87.3698 126.806C87.3698 128.643 86.6399 130.405 85.3408 131.705C84.0416 133.004 82.2796 133.734 80.4423 133.734H80.4457ZM75.2131 130.22C75.7964 131.114 76.5993 131.844 77.5451 132.34C78.4909 132.836 79.548 133.081 80.6155 133.052C81.683 133.023 82.7253 132.721 83.6428 132.175C84.5604 131.628 85.3225 130.856 85.8565 129.931C86.3905 129.006 86.6785 127.96 86.6931 126.892C86.7077 125.824 86.4483 124.771 85.9397 123.832C85.4311 122.893 84.6903 122.1 83.788 121.529C82.8857 120.957 81.852 120.627 80.7857 120.569V124.294C81.4217 124.381 82.0008 124.707 82.4062 125.205C82.8115 125.703 83.0129 126.336 82.9698 126.977C82.9266 127.617 82.6422 128.218 82.1737 128.657C81.7053 129.096 81.0877 129.341 80.4457 129.343C80.0574 129.342 79.6745 129.252 79.3264 129.08C78.9783 128.907 78.6744 128.658 78.438 128.35L75.2131 130.22Z" fill="#4A4E79"/>
<path d="M150.712 109.239C150.706 107.493 150.011 105.821 148.776 104.586C147.542 103.352 145.87 102.656 144.124 102.651C142.859 102.654 141.623 103.028 140.568 103.727L137.448 95.4056L135.692 88.3999C135.455 87.4505 134.907 86.6079 134.135 86.0069C133.362 85.4059 132.411 85.0813 131.432 85.0849H119.971V78.4974C119.971 77.9149 119.739 77.3562 119.327 76.9443C118.915 76.5324 118.357 76.301 117.774 76.301H95.8154C95.2331 76.3015 94.6749 76.5331 94.2634 76.9449C93.8518 77.3568 93.6207 77.9152 93.6207 78.4974V85.0849H82.6404V89.476H131.43L132.529 93.8688H82.6404V98.2599H133.826L138.768 111.435H99.9005C99.4209 109.551 98.3272 107.88 96.7922 106.687C95.2572 105.494 93.3684 104.846 91.4243 104.846C89.4801 104.846 87.5913 105.494 86.0563 106.687C84.5213 107.88 83.4277 109.551 82.9481 111.435H82.6404V115.826H141.928C142.51 115.826 143.069 116.057 143.481 116.469C143.893 116.881 144.124 117.44 144.124 118.022V135.589C144.124 135.877 144.068 136.163 143.958 136.429C143.847 136.696 143.685 136.938 143.481 137.142C143.277 137.346 143.035 137.508 142.769 137.618C142.502 137.729 142.216 137.785 141.928 137.785H73.8582V142.176H78.2493V146.569H73.8582V150.96H78.2493C79.4129 150.957 80.5279 150.493 81.3508 149.67C82.1736 148.848 82.6372 147.732 82.6404 146.569V142.176H130.949V146.569C130.953 147.732 131.417 148.847 132.239 149.67C133.062 150.493 134.177 150.956 135.34 150.96H144.124C145.288 150.957 146.403 150.493 147.226 149.67C148.049 148.848 148.512 147.732 148.515 146.569V118.022C148.512 116.887 148.209 115.773 147.638 114.792C148.579 114.203 149.355 113.385 149.893 112.413C150.431 111.441 150.713 110.349 150.712 109.239ZM115.578 85.0849H98.0118V80.6938H115.578V85.0849ZM87.6469 111.435C88.027 110.769 88.5766 110.214 89.24 109.829C89.9035 109.444 90.657 109.241 91.4243 109.241C92.1915 109.241 92.945 109.444 93.6085 109.829C94.2719 110.214 94.8216 110.769 95.2017 111.435H87.6469ZM144.124 146.569H135.34V142.176H141.928C142.677 142.17 143.42 142.036 144.124 141.78V146.569ZM144.124 111.435C143.877 111.434 143.632 111.389 143.4 111.302L142.236 108.162C142.42 107.823 142.693 107.54 143.026 107.343C143.358 107.146 143.738 107.042 144.124 107.044C144.418 107.036 144.71 107.086 144.983 107.193C145.257 107.3 145.506 107.46 145.717 107.665C145.927 107.87 146.094 108.114 146.209 108.385C146.323 108.655 146.382 108.946 146.382 109.239C146.382 109.533 146.323 109.824 146.209 110.094C146.094 110.364 145.927 110.609 145.717 110.814C145.506 111.019 145.257 111.179 144.983 111.286C144.71 111.392 144.418 111.443 144.124 111.435Z" fill="#4A4E79"/>
<path d="M144.126 151.3H135.34C134.088 151.292 132.889 150.791 132.003 149.906C131.118 149.02 130.617 147.821 130.609 146.569V142.516H82.9803V146.569C82.9727 147.821 82.472 149.02 81.5868 149.905C80.7015 150.791 79.503 151.292 78.2509 151.3H73.5181V146.229H77.9092V142.516H73.5181V137.445H141.929C142.421 137.444 142.893 137.248 143.241 136.9C143.588 136.552 143.784 136.08 143.784 135.588V118.022C143.784 117.53 143.588 117.059 143.241 116.711C142.893 116.363 142.421 116.167 141.929 116.166H82.3003V111.095H82.6879C83.2307 109.197 84.3769 107.527 85.9532 106.338C87.5294 105.15 89.4499 104.507 91.4242 104.507C93.3984 104.507 95.3189 105.15 96.8952 106.338C98.4714 107.527 99.6177 109.197 100.16 111.095H138.276L133.591 98.5998H82.3003V93.5287H132.09L131.162 89.8159H82.3003V84.7448H93.2806V78.4973C93.281 77.8251 93.5482 77.1805 94.0234 76.7049C94.4986 76.2294 95.143 75.9618 95.8153 75.9609H117.774C118.447 75.9614 119.092 76.2288 119.567 76.7043C120.043 77.1799 120.31 77.8248 120.311 78.4973V84.7448H131.451C132.502 84.7432 133.524 85.0939 134.352 85.7411C135.181 86.3882 135.769 87.2944 136.022 88.3148L137.775 95.3001L140.739 103.217C141.769 102.623 142.936 102.31 144.124 102.308C145.958 102.319 147.714 103.052 149.01 104.349C150.307 105.646 151.041 107.401 151.052 109.235C151.056 110.35 150.788 111.449 150.272 112.436C149.755 113.424 149.005 114.271 148.087 114.903C148.588 115.865 148.851 116.933 148.855 118.017V146.569C148.848 147.821 148.347 149.02 147.462 149.905C146.577 150.791 145.378 151.292 144.126 151.3ZM82.3003 141.836H131.289V146.569C131.297 147.641 131.726 148.667 132.485 149.425C133.243 150.184 134.27 150.613 135.342 150.62H144.124C145.197 150.612 146.223 150.183 146.981 149.424C147.739 148.666 148.168 147.639 148.175 146.567V118.022C148.172 116.947 147.885 115.892 147.344 114.962L147.174 114.678L147.454 114.508C148.35 113.952 149.087 113.175 149.597 112.253C150.107 111.33 150.373 110.292 150.368 109.238C150.357 107.585 149.695 106.002 148.526 104.833C147.357 103.664 145.774 103.002 144.121 102.991C142.922 102.994 141.75 103.348 140.751 104.011L140.396 104.247L137.117 95.4871L135.359 88.4831C135.143 87.6093 134.641 86.8329 133.932 86.2782C133.223 85.7235 132.349 85.4224 131.449 85.4231H119.631V78.4973C119.63 78.0051 119.434 77.5332 119.086 77.1852C118.738 76.8371 118.266 76.6414 117.774 76.6409H95.8153C95.3234 76.6418 94.8519 76.8378 94.5042 77.1858C94.1565 77.5338 93.961 78.0054 93.9606 78.4973V85.4248H82.9803V89.1359H131.699L132.965 94.2087H82.9854V97.9198H134.062L139.257 111.775H99.6369L99.5706 111.518C99.1094 109.708 98.0582 108.102 96.583 106.956C95.1077 105.809 93.2926 105.187 91.4242 105.187C89.5558 105.187 87.7406 105.809 86.2654 106.956C84.7902 108.102 83.7389 109.708 83.2778 111.518L83.2132 111.775H82.9803V115.486H141.929C142.602 115.487 143.246 115.754 143.721 116.23C144.197 116.705 144.464 117.35 144.464 118.022V135.588C144.464 136.261 144.197 136.905 143.721 137.381C143.246 137.856 142.602 138.124 141.929 138.125H74.1981V141.836H78.5892V146.909H74.1981V150.62H78.2492C79.3215 150.612 80.3478 150.183 81.106 149.424C81.8641 148.666 82.2931 147.639 82.3003 146.567V141.836ZM144.464 146.909H135V141.836H141.929C142.639 141.831 143.342 141.704 144.009 141.462L144.464 141.292V146.909ZM135.68 146.229H143.784V142.249C143.182 142.422 142.558 142.512 141.931 142.516H135.68V146.229ZM144.124 111.775C143.837 111.773 143.552 111.722 143.283 111.622L143.136 111.567L141.865 108.137L141.938 108.001C142.151 107.608 142.465 107.28 142.849 107.052C143.233 106.824 143.671 106.703 144.117 106.704H144.128C144.466 106.695 144.803 106.754 145.118 106.878C145.433 107.001 145.721 107.186 145.963 107.423C146.206 107.659 146.399 107.941 146.53 108.253C146.662 108.565 146.73 108.901 146.73 109.239C146.73 109.578 146.662 109.913 146.53 110.225C146.399 110.537 146.206 110.82 145.963 111.056C145.721 111.292 145.433 111.478 145.118 111.601C144.803 111.724 144.466 111.784 144.128 111.775H144.124ZM143.662 111.03C143.813 111.073 143.969 111.095 144.126 111.095C144.374 111.102 144.622 111.06 144.853 110.97C145.085 110.88 145.296 110.745 145.475 110.572C145.653 110.399 145.795 110.192 145.892 109.963C145.989 109.734 146.038 109.488 146.038 109.239C146.038 108.991 145.989 108.745 145.892 108.516C145.795 108.287 145.653 108.08 145.475 107.907C145.296 107.734 145.085 107.598 144.853 107.508C144.622 107.419 144.374 107.376 144.126 107.384C143.827 107.383 143.533 107.457 143.271 107.599C143.008 107.741 142.785 107.946 142.621 108.196L143.662 111.03ZM95.7864 111.775H87.0637L87.3527 111.265C87.7622 110.546 88.3547 109.948 89.0699 109.533C89.7852 109.117 90.5977 108.898 91.425 108.898C92.2523 108.898 93.0648 109.117 93.7801 109.533C94.4954 109.948 95.0878 110.546 95.4974 111.265L95.7864 111.775ZM88.286 111.095H94.5624C94.1875 110.622 93.7106 110.239 93.1671 109.977C92.6237 109.714 92.0278 109.577 91.4242 109.577C90.8205 109.577 90.2247 109.714 89.6812 109.977C89.1378 110.239 88.6608 110.622 88.286 111.095ZM115.919 85.4248H97.6717V80.3537H115.919V85.4248ZM98.3517 84.7448H115.239V81.0337H98.3517V84.7448Z" fill="#4A4E79"/>
</svg>
