<svg width="75" height="75" viewBox="0 0 75 75" fill="none" xmlns="http://www.w3.org/2000/svg">
<path d="M63.3189 0H11.6811C5.24018 0 0 5.24004 0 11.6811V63.3189C0 69.76 5.24018 75 11.6811 75H63.3188C69.7598 75 75 69.76 75 63.3189V11.6811C75 5.24004 69.7598 0 63.3189 0ZM72.8027 63.3189C72.8027 68.5484 68.5482 72.8027 63.3189 72.8027H11.6811C6.45176 72.8027 2.19727 68.5484 2.19727 63.3189V11.6811C2.19727 6.45161 6.45176 2.19727 11.6811 2.19727H63.3188C68.5482 2.19727 72.8027 6.45161 72.8027 11.6811V63.3189Z" fill="#FBFBFB"/>
<path d="M63.3188 5.21631H11.681C8.11631 5.21631 5.21606 8.11641 5.21606 11.6813V15.0103C5.21606 15.617 5.70796 16.1089 6.3147 16.1089C6.92144 16.1089 7.41333 15.617 7.41333 15.0103V11.6813C7.41333 9.32813 9.32773 7.41357 11.681 7.41357H63.3187C65.6718 7.41357 67.5863 9.32798 67.5863 11.6813V63.3189C67.5863 65.6722 65.6719 67.5866 63.3187 67.5866H11.681C9.32788 67.5866 7.41333 65.6722 7.41333 63.3189V20.1463C7.41333 19.5396 6.92144 19.0477 6.3147 19.0477C5.70796 19.0477 5.21606 19.5396 5.21606 20.1463V63.3189C5.21606 66.8837 8.11616 69.7838 11.681 69.7838H63.3187C66.8835 69.7838 69.7836 66.8837 69.7836 63.3189V11.6813C69.7836 8.11641 66.8836 5.21631 63.3188 5.21631Z" fill="#FBFBFB"/>
<path d="M55.1696 36.0592C52.0987 33.8921 46.9319 33.0661 42.794 34.0102C42.3675 33.3567 41.8236 32.7872 41.1918 32.3313C42.0154 30.6312 43.4501 29.3787 45.932 28.1483C47.2376 27.5009 48.8627 26.6951 48.8627 24.5587C48.8627 18.7241 42.99 15.1125 37.549 15.1125C31.3107 15.1125 26.2354 19.35 26.2354 24.5587C26.2354 27.1457 27.5028 30.5948 29.4642 33.3456C30.0943 34.2289 30.7637 35.0064 31.4601 35.6687C31.3237 36.1317 31.2377 36.6162 31.2118 37.1164C29.4746 36.9898 27.8372 36.2072 25.8112 34.5709L25.784 34.549C24.6626 33.6428 23.2669 32.5147 21.3254 33.4079C16.0244 35.8454 15.1967 42.6898 17.4698 47.6333C19.8727 52.8594 25.6908 56.3054 30.7785 53.9656C34.3659 52.3161 37.9016 47.7786 38.9662 43.5825C39.2838 43.5071 39.592 43.4082 39.8891 43.2866C40.9274 44.8358 41.4089 46.6815 40.8799 50.0825C40.6561 51.5226 40.3775 53.3148 42.1231 54.5469C46.7569 57.8168 53.1103 55.3603 56.3642 50.7494C57.9926 48.4418 58.8587 45.598 58.7403 42.9474C58.6105 40.0388 57.3424 37.5925 55.1696 36.0592ZM31.2532 32.0697C29.5662 29.7037 28.4328 26.6853 28.4328 24.5586C28.4328 20.5615 32.5224 17.3097 37.5491 17.3097C43.1801 17.3097 46.6656 21.0724 46.6656 24.5586C46.6656 25.2409 46.3218 25.5024 44.9561 26.1796C42.0253 27.6326 40.2483 29.226 39.2117 31.3754C38.67 31.2233 38.0998 31.1403 37.51 31.1403C35.4757 31.1403 33.6641 32.1094 32.5101 33.6094C32.0788 33.1512 31.6583 32.6376 31.2532 32.0697ZM29.8606 51.9692C25.9132 53.7849 21.3513 50.815 19.4662 46.7151C17.1137 41.599 19.0761 36.8604 22.2436 35.4039C22.8639 35.1188 23.2394 35.3174 24.403 36.2577L24.4306 36.2798C26.9697 38.3306 29.1345 39.2747 31.4905 39.3305C32.2105 41.6264 34.2108 43.3599 36.6507 43.6938C35.4918 47.313 32.3441 50.8272 29.8606 51.9692ZM37.51 41.5568C35.2439 41.5568 33.4004 39.7133 33.4004 37.4472C33.4004 35.1811 35.2439 33.3375 37.51 33.3375C39.776 33.3375 41.6196 35.1811 41.6196 37.4472C41.6196 39.7355 39.7489 41.5568 37.51 41.5568ZM54.5692 49.4823C51.9802 53.151 46.959 55.2701 43.3903 52.7514C42.8327 52.358 42.8173 51.9264 43.0515 50.4198C43.6033 46.8708 43.2263 44.3771 41.7455 42.1164C43.4221 40.5941 44.1617 38.3037 43.6647 36.0743C47.1048 35.4191 51.4723 36.1395 53.9028 37.8545C55.508 38.9873 56.4465 40.8308 56.5455 43.0452C56.6425 45.2188 55.9222 47.565 54.5692 49.4823Z" fill="#FBFBFB"/>
<path d="M56.7871 62.0361C56.7871 64.4188 58.7255 66.3574 61.1084 66.3574C63.4913 66.3574 65.4297 64.4188 65.4297 62.0361C65.4297 59.6534 63.4913 57.7148 61.1084 57.7148C58.7255 57.7148 56.7871 59.6534 56.7871 62.0361ZM63.2324 62.0361C63.2324 63.2073 62.2795 64.1602 61.1084 64.1602C59.9373 64.1602 58.9844 63.2073 58.9844 62.0361C58.9844 60.865 59.9373 59.9121 61.1084 59.9121C62.2795 59.9121 63.2324 60.865 63.2324 62.0361Z" fill="#FBFBFB"/>
<path d="M57.0348 20.6934C56.5621 21.074 56.4875 21.7656 56.8679 22.2381C60.4527 26.6911 62.3475 32.0729 62.3475 37.8018C62.3475 51.4974 51.2054 62.6395 37.5097 62.6395C31.781 62.6395 26.3992 60.7446 21.9462 57.1599C21.4738 56.7794 20.7821 56.8541 20.4015 57.3267C20.0211 57.7994 20.0958 58.491 20.5684 58.8714C25.3468 62.7182 31.3634 64.8368 37.5097 64.8368C52.4169 64.8368 64.5447 52.7089 64.5447 37.8018C64.5447 31.6553 62.4261 25.6388 58.5793 20.8603C58.199 20.3876 57.5075 20.313 57.0348 20.6934Z" fill="#FBFBFB"/>
<path d="M54.8289 17.0414C49.9833 12.9951 43.8326 10.7666 37.5099 10.7666C22.6027 10.7666 10.4749 22.8945 10.4749 37.8018C10.4749 44.1246 12.7033 50.2752 16.7497 55.1206C16.9669 55.3808 17.2791 55.5149 17.5936 55.5149C17.8418 55.5149 18.0916 55.4312 18.2973 55.2596C18.7629 54.8707 18.8252 54.1778 18.4363 53.7122C14.7192 49.2611 12.6721 43.6107 12.6721 37.8018C12.6721 24.1061 23.8143 12.9639 37.5099 12.9639C43.3188 12.9639 48.9693 15.011 53.4204 18.728C53.8862 19.1171 54.5789 19.0545 54.9679 18.589C55.3568 18.1232 55.2944 17.4305 54.8289 17.0414Z" fill="#FBFBFB"/>
</svg>
