<svg width="170" height="170" viewBox="0 0 170 170" fill="none" xmlns="http://www.w3.org/2000/svg">
<path d="M155.314 4.25C158.081 4.25315 160.733 5.3537 162.69 7.3102C164.646 9.2667 165.747 11.9194 165.75 14.6863V155.314C165.747 158.081 164.646 160.733 162.69 162.69C160.733 164.646 158.081 165.747 155.314 165.75H14.6863C11.9194 165.747 9.2667 164.646 7.3102 162.69C5.3537 160.733 4.25315 158.081 4.25 155.314V14.6863C4.25315 11.9194 5.3537 9.2667 7.3102 7.3102C9.2667 5.3537 11.9194 4.25315 14.6863 4.25H155.314ZM155.314 0H14.6863C10.7913 0 7.05573 1.5473 4.30152 4.30152C1.5473 7.05573 0 10.7913 0 14.6863L0 155.314C0 159.209 1.5473 162.944 4.30152 165.698C7.05573 168.453 10.7913 170 14.6863 170H155.314C159.209 170 162.944 168.453 165.698 165.698C168.453 162.944 170 159.209 170 155.314V14.6863C170 10.7913 168.453 7.05573 165.698 4.30152C162.944 1.5473 159.209 0 155.314 0V0Z" fill="#4A4E79"/>
<path d="M113.378 63.5616L111.967 58.9206C111.289 56.927 110.005 55.1956 108.293 53.9694C106.581 52.7433 104.528 52.084 102.423 52.084C100.317 52.084 98.2641 52.7433 96.5523 53.9694C94.8405 55.1956 93.5556 56.927 92.8779 58.9206L91.4669 63.5616C90.2794 67.4783 90.0302 71.6194 90.7393 75.6503C91.0587 77.3242 91.7504 78.9048 92.7632 80.2752C93.7761 81.6456 95.0842 82.7707 96.5907 83.5672L95.0114 118.869C94.9082 119.843 95.0114 120.827 95.3143 121.757C95.6172 122.688 96.1129 123.544 96.7692 124.27C97.4492 125.014 98.2691 125.616 99.182 126.043C100.095 126.47 101.083 126.713 102.09 126.757C103.096 126.802 104.102 126.648 105.049 126.304C105.996 125.96 106.867 125.433 107.61 124.753C107.779 124.598 107.94 124.436 108.095 124.269C108.739 123.561 109.228 122.727 109.531 121.819C109.833 120.912 109.943 119.951 109.852 118.999L108.263 83.5553C109.766 82.759 111.072 81.6353 112.083 80.2671C113.094 78.8989 113.784 77.3212 114.104 75.6503C114.815 71.6196 114.566 67.4783 113.378 63.5616ZM109.778 74.8768C109.543 76.0738 108.999 77.1885 108.2 78.1094C107.4 79.0303 106.372 79.7252 105.22 80.1247C104.786 80.2879 104.414 80.5844 104.159 80.9716C103.904 81.3588 103.778 81.8169 103.799 82.2803L105.468 119.357C105.506 119.717 105.467 120.08 105.354 120.423C105.24 120.766 105.055 121.081 104.81 121.346C104.174 121.974 103.316 122.326 102.423 122.326C101.529 122.326 100.671 121.974 100.035 121.346C99.778 121.059 99.587 120.719 99.4754 120.35C99.3638 119.981 99.3343 119.593 99.3889 119.211L101.045 82.2803C101.066 81.8164 100.94 81.3576 100.684 80.9702C100.428 80.5827 100.055 80.2867 99.6201 80.1247C98.4679 79.725 97.4408 79.0299 96.6414 78.109C95.8419 77.1882 95.298 76.0736 95.0641 74.8768C94.4759 71.5324 94.6827 68.0965 95.6676 64.8468L97.0769 60.2041C97.4805 59.1126 98.2089 58.171 99.1638 57.506C100.119 56.841 101.255 56.4845 102.418 56.4845C103.582 56.4845 104.718 56.841 105.673 57.506C106.628 58.171 107.356 59.1126 107.76 60.2041L109.171 64.8468C110.155 68.0966 110.363 71.532 109.778 74.8768Z" fill="#4A4E79"/>
<path d="M102.441 127.104C102.318 127.104 102.196 127.104 102.073 127.104C101.022 127.06 99.9891 126.807 99.0356 126.361C98.082 125.915 97.2262 125.285 96.5177 124.507C95.8282 123.743 95.3076 122.843 94.9897 121.865C94.6719 120.887 94.564 119.853 94.6732 118.83L96.2423 83.7524C94.7353 82.9243 93.4304 81.7727 92.4213 80.3803C91.4123 78.988 90.7241 77.3894 90.4062 75.6995C89.692 71.618 89.9441 67.426 91.1423 63.4595L92.5516 58.8185C93.0691 57.3062 93.9253 55.9322 95.0549 54.8014C96.1846 53.6707 97.5577 52.813 99.0694 52.2939C100.366 51.8537 101.737 51.6734 103.103 51.7632C104.469 51.8529 105.805 52.2111 107.032 52.8172C108.26 53.4233 109.356 54.2655 110.259 55.2955C111.161 56.3255 111.851 57.5232 112.29 58.8202L113.703 63.4714C114.901 67.4379 115.153 71.6299 114.439 75.7114C114.123 77.4007 113.436 78.9989 112.428 80.3912C111.421 81.7836 110.117 82.9355 108.612 83.7643L110.191 119C110.282 119.996 110.164 120.999 109.847 121.947C109.529 122.894 109.017 123.766 108.345 124.505C108.185 124.675 108.005 124.845 107.835 125.015C106.363 126.364 104.437 127.11 102.441 127.104ZM102.432 52.418C100.396 52.4191 98.4107 53.0571 96.7551 54.2426C95.0995 55.4282 93.8562 57.1019 93.1993 59.0293L91.8002 63.6601C90.6327 67.5235 90.3865 71.6066 91.0811 75.5822C91.3876 77.2067 92.0573 78.7409 93.0403 80.07C94.0232 81.3992 95.2939 82.4889 96.7574 83.2577L96.9478 83.3597L95.3566 118.89C95.2575 119.816 95.3552 120.753 95.6432 121.639C95.9311 122.526 96.4029 123.341 97.0277 124.032C98.341 125.465 100.169 126.319 102.111 126.406C104.053 126.493 105.95 125.806 107.386 124.496C107.546 124.348 107.702 124.192 107.85 124.032C108.459 123.36 108.922 122.568 109.21 121.708C109.497 120.847 109.603 119.936 109.519 119.033L107.92 83.3478L108.11 83.2475C109.572 82.4777 110.842 81.3874 111.823 80.0579C112.804 78.7285 113.473 77.1944 113.778 75.5703C114.472 71.5963 114.226 67.515 113.059 63.6533L111.649 59.0123C110.992 57.0903 109.751 55.4214 108.1 54.2381C106.449 53.0548 104.47 52.4162 102.439 52.4112L102.432 52.418ZM102.418 122.66C101.435 122.664 100.49 122.277 99.7902 121.586L99.7766 121.572C99.4879 121.251 99.2729 120.87 99.1467 120.456C99.0204 120.043 98.9859 119.607 99.0456 119.179L100.7 82.2632C100.718 81.8717 100.612 81.4844 100.396 81.1572C100.181 80.8299 99.8667 80.5797 99.4995 80.4425C98.2935 80.0213 97.2186 79.2919 96.3815 78.3269C95.5444 77.3619 94.9743 76.1948 94.7276 74.9413C94.1339 71.5429 94.3435 68.0527 95.3396 64.7498L96.7574 60.0884C97.1845 58.9312 97.956 57.9326 98.9681 57.2274C99.9801 56.5221 101.184 56.144 102.418 56.144C103.651 56.144 104.855 56.5221 105.867 57.2274C106.879 57.9326 107.651 58.9312 108.078 60.0884V60.1071L109.487 64.7498C110.483 68.0511 110.693 71.5393 110.101 74.9362C109.854 76.191 109.283 77.3594 108.445 78.3251C107.606 79.2909 106.53 80.0203 105.322 80.4408C104.957 80.5795 104.646 80.83 104.432 81.1564C104.218 81.4828 104.113 81.8684 104.132 82.2581L105.801 119.318C105.842 119.724 105.797 120.134 105.668 120.521C105.539 120.908 105.33 121.264 105.053 121.564C104.354 122.262 103.407 122.656 102.418 122.66ZM100.282 121.11C100.854 121.672 101.624 121.987 102.426 121.987C103.228 121.987 103.998 121.672 104.571 121.11C104.78 120.881 104.938 120.609 105.034 120.314C105.131 120.019 105.163 119.707 105.13 119.398V119.378L103.461 82.3006C103.435 81.7655 103.58 81.236 103.875 80.7887C104.17 80.3414 104.599 79.9993 105.101 79.8118C106.197 79.4316 107.175 78.771 107.937 77.8956C108.698 77.0202 109.218 75.9607 109.443 74.8223C110.015 71.5342 109.812 68.1577 108.848 64.9623L107.44 60.3145C107.058 59.2932 106.373 58.413 105.477 57.7916C104.58 57.1702 103.516 56.8372 102.425 56.8372C101.335 56.8372 100.27 57.1702 99.3739 57.7916C98.4777 58.413 97.7926 59.2932 97.4102 60.3145L95.9958 64.9402C95.0307 68.1395 94.8275 71.5203 95.4025 74.8121C95.6273 75.9487 96.1455 77.0067 96.9057 77.8811C97.6658 78.7555 98.6415 79.4158 99.7358 79.7965C100.239 79.9833 100.67 80.3252 100.966 80.7729C101.263 81.2205 101.409 81.7507 101.385 82.287L99.7273 119.235V119.252C99.678 119.583 99.7021 119.921 99.7979 120.242C99.8936 120.564 100.059 120.86 100.282 121.11Z" fill="#4A4E79"/>
<path d="M79.3612 52.0916C78.7787 52.0916 78.22 52.323 77.8081 52.7349C77.3962 53.1468 77.1648 53.7054 77.1648 54.288V73.1461L71.2148 79.0961C70.9971 79.3127 70.8273 79.5727 70.7164 79.859C70.6054 80.1454 70.5557 80.4519 70.5705 80.7587L72.4915 119.196C72.5141 119.606 72.4521 120.016 72.3094 120.401C72.1666 120.785 71.9463 121.137 71.6619 121.433C71.376 121.721 71.036 121.951 70.6614 122.108C70.2868 122.265 69.8849 122.347 69.4787 122.348C69.0725 122.35 68.67 122.272 68.2941 122.118C67.9181 121.964 67.5762 121.738 67.2878 121.452L67.2691 121.433C66.9848 121.137 66.7644 120.785 66.6216 120.401C66.4789 120.016 66.4169 119.606 66.4395 119.196L68.3792 80.7502C68.3943 80.4437 68.345 80.1374 68.2346 79.8511C68.1243 79.5647 67.9552 79.3047 67.7383 79.0876L61.7883 73.1376V54.288C61.7883 53.7054 61.5569 53.1468 61.145 52.7349C60.7331 52.323 60.1744 52.0916 59.5919 52.0916C59.0094 52.0916 58.4507 52.323 58.0388 52.7349C57.6269 53.1468 57.3955 53.7054 57.3955 54.288V74.0556C57.3957 74.3439 57.4527 74.6294 57.5632 74.8957C57.6738 75.162 57.8357 75.404 58.0398 75.6077L63.9388 81.5101L62.0688 118.976C62.0214 119.949 62.1661 120.922 62.4946 121.84C62.8232 122.757 63.3292 123.6 63.9838 124.322C64.6384 125.044 65.4287 125.629 66.3096 126.046C67.1905 126.462 68.1447 126.7 69.1179 126.748C70.091 126.795 71.0639 126.651 71.9812 126.322C72.8984 125.994 73.7419 125.487 74.4635 124.833C75.1852 124.178 75.7709 123.388 76.1871 122.507C76.6033 121.626 76.842 120.672 76.8894 119.699C76.9013 119.459 76.9013 119.218 76.8894 118.978L75.0194 81.5101L80.9201 75.6094C81.3313 75.1966 81.5629 74.6382 81.5644 74.0556V54.2897C81.5644 54.0006 81.5074 53.7143 81.3966 53.4473C81.2858 53.1803 81.1234 52.9377 80.9188 52.7336C80.7141 52.5294 80.4712 52.3676 80.204 52.2574C79.9367 52.1472 79.6503 52.0909 79.3612 52.0916Z" fill="#4A4E79"/>
<path d="M69.4807 127.097C69.3549 127.097 69.2274 127.097 69.0999 127.097C67.0455 126.994 65.1157 126.081 63.7336 124.557C62.3515 123.034 61.63 121.024 61.727 118.97L63.597 81.6513L57.8 75.8492C57.5641 75.614 57.3771 75.3344 57.2496 75.0266C57.1221 74.7188 57.0567 74.3889 57.0571 74.0557V54.2881C57.0571 53.6154 57.3244 52.9703 57.8 52.4946C58.2757 52.0189 58.9208 51.7517 59.5935 51.7517C60.2662 51.7517 60.9114 52.0189 61.387 52.4946C61.8627 52.9703 62.1299 53.6154 62.1299 54.2881V73.0051L67.9779 78.8514C68.2287 79.1018 68.4242 79.4019 68.5519 79.7325C68.6795 80.0631 68.7365 80.4168 68.7191 80.7707L66.7845 119.208C66.7645 119.571 66.8194 119.935 66.9457 120.277C67.0721 120.618 67.2672 120.93 67.5189 121.193L67.5325 121.205C67.7872 121.459 68.0894 121.661 68.422 121.798C68.7545 121.935 69.1108 122.005 69.4705 122.004H69.4824C69.8443 122.004 70.2026 121.932 70.5362 121.792C70.8699 121.652 71.1722 121.447 71.4255 121.188C71.6766 120.926 71.8711 120.615 71.9972 120.275C72.1232 119.934 72.178 119.572 72.1582 119.209L70.2355 80.7707C70.2192 80.4167 70.2769 80.0632 70.4048 79.7328C70.5327 79.4023 70.7281 79.1021 70.9784 78.8514L76.8247 73.0051V54.2881C76.8247 53.955 76.8904 53.6252 77.0178 53.3175C77.1453 53.0097 77.3321 52.7301 77.5676 52.4946C77.8032 52.2591 78.0828 52.0722 78.3905 51.9448C78.6982 51.8173 79.0281 51.7517 79.3611 51.7517C79.6942 51.7517 80.0241 51.8173 80.3318 51.9448C80.6395 52.0722 80.9191 52.2591 81.1547 52.4946C81.3902 52.7301 81.577 53.0097 81.7045 53.3175C81.8319 53.6252 81.8975 53.955 81.8975 54.2881V74.0557C81.8984 74.3889 81.8332 74.719 81.7056 75.0268C81.5781 75.3347 81.3909 75.6142 81.1546 75.8492L75.361 81.6445L77.231 118.961C77.2429 119.211 77.2429 119.471 77.231 119.716C77.1313 121.705 76.2715 123.58 74.8293 124.954C73.387 126.327 71.4724 127.095 69.4807 127.097ZM59.5935 52.4317C59.1013 52.4322 58.6294 52.6279 58.2814 52.9759C57.9333 53.324 57.7376 53.7959 57.7371 54.2881V74.0557C57.7366 74.2995 57.7845 74.5411 57.8778 74.7663C57.9712 74.9916 58.1083 75.1961 58.2811 75.3681L64.2872 81.3759L62.407 119C62.3531 119.934 62.4847 120.869 62.7944 121.752C63.104 122.635 63.5855 123.447 64.211 124.142C64.8365 124.838 65.5937 125.402 66.4387 125.804C67.2837 126.205 68.1998 126.434 69.134 126.479C70.0683 126.524 71.0022 126.383 71.8818 126.065C72.7614 125.747 73.5692 125.258 74.2586 124.626C74.9479 123.993 75.5051 123.231 75.898 122.382C76.2909 121.533 76.5117 120.615 76.5476 119.68C76.5593 119.454 76.5593 119.227 76.5476 119L74.6674 81.3759L80.6735 75.3681C80.8465 75.1962 80.9836 74.9916 81.077 74.7664C81.1704 74.5411 81.2181 74.2996 81.2175 74.0557V54.2898C81.2175 53.7975 81.022 53.3253 80.6738 52.9771C80.3257 52.629 79.8535 52.4334 79.3611 52.4334C78.8688 52.4334 78.3966 52.629 78.0485 52.9771C77.7003 53.3253 77.5047 53.7975 77.5047 54.2898V73.2873L71.4595 79.3325C71.2756 79.5158 71.1321 79.7356 71.0384 79.9777C70.9447 80.2199 70.9028 80.479 70.9155 80.7384L72.8365 119.17C72.8614 119.627 72.792 120.085 72.6326 120.514C72.4732 120.943 72.2272 121.334 71.91 121.664C71.5931 121.985 71.2159 122.241 70.8001 122.416C70.3843 122.591 69.938 122.682 69.4869 122.684C69.0357 122.687 68.5886 122.6 68.1709 122.429C67.7533 122.259 67.3735 122.007 67.0531 121.69L67.0293 121.666C66.7124 121.335 66.4668 120.943 66.3077 120.514C66.1486 120.085 66.0794 119.627 66.1045 119.17L68.0391 80.735C68.0519 80.476 68.0103 80.2173 67.9168 79.9754C67.8234 79.7335 67.6804 79.514 67.4968 79.3308L61.4499 73.2873V54.2881C61.4495 53.7959 61.2538 53.324 60.9057 52.9759C60.5577 52.6279 60.0857 52.4322 59.5935 52.4317Z" fill="#4A4E79"/>
<path d="M66.1827 52.0916C65.6003 52.092 65.0419 52.3235 64.6301 52.7354C64.2183 53.1472 63.9868 53.7056 63.9863 54.2879V71.8592C63.9863 72.4417 64.2177 73.0003 64.6296 73.4122C65.0415 73.8241 65.6002 74.0555 66.1827 74.0555C66.7652 74.0555 67.3239 73.8241 67.7358 73.4122C68.1477 73.0003 68.3791 72.4417 68.3791 71.8592V54.2879C68.3791 53.7054 68.1477 53.1468 67.7358 52.7349C67.3239 52.323 66.7652 52.0916 66.1827 52.0916Z" fill="#4A4E79"/>
<path d="M66.1826 74.3957C65.5101 74.3953 64.8652 74.1279 64.3896 73.6523C63.9141 73.1767 63.6467 72.5319 63.6462 71.8593V54.2881C63.6462 53.6154 63.9135 52.9703 64.3891 52.4946C64.8648 52.0189 65.5099 51.7517 66.1826 51.7517C66.8553 51.7517 67.5005 52.0189 67.9761 52.4946C68.4518 52.9703 68.719 53.6154 68.719 54.2881V71.8593C68.7186 72.5319 68.4512 73.1767 67.9756 73.6523C67.5001 74.1279 66.8552 74.3953 66.1826 74.3957ZM66.1826 52.4317C65.6904 52.4322 65.2185 52.6279 64.8705 52.9759C64.5224 53.324 64.3267 53.7959 64.3262 54.2881V71.8593C64.3262 72.3517 64.5218 72.8238 64.87 73.172C65.2181 73.5201 65.6903 73.7157 66.1826 73.7157C66.675 73.7157 67.1472 73.5201 67.4953 73.172C67.8434 72.8238 68.039 72.3517 68.039 71.8593V54.2881C68.0386 53.7959 67.8429 53.324 67.4948 52.9759C67.1468 52.6279 66.6748 52.4322 66.1826 52.4317Z" fill="#4A4E79"/>
<path d="M72.7721 52.0916C72.1896 52.0916 71.6309 52.323 71.219 52.7349C70.8071 53.1468 70.5757 53.7054 70.5757 54.2879V71.8592C70.5757 72.4417 70.8071 73.0003 71.219 73.4122C71.6309 73.8241 72.1896 74.0555 72.7721 74.0555C73.3546 74.0555 73.9133 73.8241 74.3252 73.4122C74.7371 73.0003 74.9685 72.4417 74.9685 71.8592V54.2879C74.968 53.7056 74.7365 53.1472 74.3247 52.7354C73.9129 52.3235 73.3545 52.092 72.7721 52.0916Z" fill="#4A4E79"/>
<path d="M72.772 74.3957C72.0994 74.3953 71.4546 74.1279 70.979 73.6523C70.5034 73.1767 70.236 72.5319 70.2356 71.8593V54.2881C70.2356 53.6154 70.5028 52.9703 70.9785 52.4946C71.4542 52.0189 72.0993 51.7517 72.772 51.7517C73.4447 51.7517 74.0898 52.0189 74.5655 52.4946C75.0412 52.9703 75.3084 53.6154 75.3084 54.2881V71.8593C75.3079 72.5319 75.0406 73.1767 74.565 73.6523C74.0894 74.1279 73.4445 74.3953 72.772 74.3957ZM72.772 52.4317C72.2798 52.4322 71.8079 52.6279 71.4598 52.9759C71.1118 53.324 70.916 53.7959 70.9156 54.2881V71.8593C70.9156 72.3517 71.1112 72.8238 71.4593 73.172C71.8075 73.5201 72.2796 73.7157 72.772 73.7157C73.2643 73.7157 73.7365 73.5201 74.0847 73.172C74.4328 72.8238 74.6284 72.3517 74.6284 71.8593V54.2881C74.6279 53.7959 74.4322 53.324 74.0842 52.9759C73.7361 52.6279 73.2642 52.4322 72.772 52.4317Z" fill="#4A4E79"/>
<path d="M85.9504 19.1472C49.5602 19.1472 20.0601 48.6473 20.0601 85.0375C20.0601 121.428 49.5602 150.926 85.9504 150.926C122.341 150.926 151.839 121.428 151.839 85.0375C151.798 48.6643 122.322 19.188 85.9504 19.1472ZM85.9504 146.535C51.9861 146.54 24.4529 119 24.4529 85.0375C24.4529 51.0749 51.9929 23.54 85.9504 23.54C119.908 23.54 147.446 51.08 147.446 85.0375C147.409 118.985 119.898 146.496 85.9504 146.54V146.535Z" fill="#4A4E79"/>
<path d="M85.9504 151.266C77.2248 151.31 68.5764 149.63 60.5023 146.321C52.4281 143.013 45.0873 138.141 38.9017 131.987C32.7161 125.833 27.8076 118.517 24.4582 110.459C21.1088 102.402 19.3845 93.7624 19.3845 85.0367C19.3845 76.311 21.1088 67.6713 24.4582 59.614C27.8076 51.5567 32.7161 44.2407 38.9017 38.0863C45.0873 31.932 52.4281 27.0606 60.5023 23.752C68.5764 20.4435 77.2248 18.763 85.9504 18.8072C94.676 18.763 103.324 20.4435 111.398 23.752C119.473 27.0606 126.813 31.932 132.999 38.0863C139.185 44.2407 144.093 51.5567 147.443 59.614C150.792 67.6713 152.516 76.311 152.516 85.0367C152.516 93.7624 150.792 102.402 147.443 110.459C144.093 118.517 139.185 125.833 132.999 131.987C126.813 138.141 119.473 143.013 111.398 146.321C103.324 149.63 94.676 151.31 85.9504 151.266ZM85.9504 19.4872C49.8101 19.4872 20.4001 48.8922 20.4001 85.0376C20.4001 121.183 49.8101 150.586 85.9504 150.586C122.091 150.586 151.499 121.176 151.499 85.0376C151.458 48.9347 122.06 19.528 85.9487 19.4872H85.9504ZM85.9504 146.873C70.6516 146.871 55.8993 141.185 44.5557 130.92C33.2121 120.655 26.0859 106.542 24.5597 91.3193C23.0336 76.0968 27.2163 60.8502 36.2964 48.5374C45.3765 36.2246 58.7065 27.7237 73.7002 24.6838C88.6939 21.644 104.282 24.282 117.441 32.086C130.599 39.8901 140.39 52.3038 144.913 66.9186C149.436 81.5334 148.369 97.3074 141.92 111.18C135.47 125.053 124.097 136.035 110.007 141.996C102.398 145.226 94.2161 146.887 85.9504 146.88V146.873ZM85.9504 23.88C52.2275 23.88 24.7929 51.3147 24.7929 85.0376C24.7929 118.76 52.2275 146.2 85.9504 146.2C119.634 146.163 147.069 118.728 147.106 85.0427C147.106 51.3147 119.68 23.88 85.9504 23.88Z" fill="#4A4E79"/>
<path d="M93.0802 126.266C93.023 125.686 92.7382 125.153 92.2882 124.783C91.8382 124.413 91.2597 124.236 90.6798 124.292L90.5948 124.303H90.6101C87.518 124.661 84.3948 124.661 81.3026 124.303C80.7239 124.235 80.1421 124.4 79.6851 124.761C79.2281 125.123 78.9333 125.651 78.8657 126.23C78.7981 126.808 78.9631 127.39 79.3245 127.847C79.6858 128.304 80.2139 128.599 80.7926 128.667C84.2217 129.068 87.6859 129.068 91.115 128.667C91.6936 128.608 92.2255 128.323 92.5939 127.873C92.9623 127.423 93.1372 126.845 93.0802 126.266Z" fill="#4A4E79"/>
<path d="M85.947 129.306C84.2086 129.305 82.4717 129.204 80.745 129.003C80.4083 128.971 80.0814 128.873 79.7834 128.713C79.4854 128.553 79.2224 128.335 79.0097 128.072C78.797 127.81 78.639 127.507 78.545 127.182C78.4509 126.857 78.4227 126.517 78.462 126.181C78.5013 125.845 78.6074 125.521 78.7739 125.226C78.9404 124.932 79.164 124.674 79.4316 124.467C79.6992 124.261 80.0055 124.109 80.3323 124.023C80.6592 123.936 81 123.916 81.3349 123.963C84.4011 124.318 87.498 124.318 90.5642 123.963L90.6475 123.952C91.317 123.887 91.9851 124.09 92.5048 124.517C93.0244 124.945 93.3531 125.561 93.4185 126.23C93.4839 126.9 93.2806 127.568 92.8534 128.088C92.4262 128.607 91.81 128.936 91.1405 129.001C89.4167 129.203 87.6826 129.305 85.947 129.306ZM81.0391 124.626C80.5644 124.624 80.1072 124.804 79.7613 125.129C79.4155 125.455 79.2074 125.9 79.1797 126.374C79.1521 126.848 79.307 127.314 79.6127 127.677C79.9184 128.041 80.3515 128.273 80.8232 128.326C84.2263 128.724 87.6642 128.724 91.0674 128.326C91.3107 128.304 91.5471 128.233 91.763 128.119C91.9789 128.004 92.1702 127.848 92.3257 127.66C92.4813 127.472 92.5982 127.254 92.6696 127.021C92.741 126.787 92.7656 126.542 92.7419 126.298C92.6933 125.809 92.4526 125.358 92.0724 125.045C91.6923 124.733 91.2037 124.584 90.7138 124.631H90.6407C87.5231 124.991 84.3743 124.991 81.2567 124.631C81.1843 124.625 81.1117 124.623 81.0391 124.626Z" fill="#4A4E79"/>
<path d="M119.554 56.736C119.369 56.5149 119.142 56.3323 118.886 56.199C118.63 56.0656 118.351 55.9839 118.064 55.9586C117.776 55.9334 117.487 55.965 117.212 56.0517C116.936 56.1384 116.681 56.2786 116.46 56.464L116.45 56.4725C116.005 56.848 115.727 57.3848 115.678 57.965C115.628 58.5452 115.811 59.1212 116.186 59.5665C122.574 67.1484 125.879 76.8534 125.447 86.7577C125.016 96.6621 120.879 106.043 113.856 113.04C113.648 113.243 113.483 113.485 113.37 113.753C113.257 114.02 113.197 114.307 113.196 114.598C113.194 114.888 113.25 115.176 113.36 115.444C113.47 115.713 113.632 115.957 113.837 116.163C114.042 116.368 114.286 116.531 114.554 116.642C114.823 116.753 115.11 116.81 115.401 116.809C115.691 116.808 115.978 116.749 116.246 116.637C116.514 116.524 116.756 116.36 116.96 116.153C133.139 100.033 134.266 74.2035 119.554 56.736Z" fill="#4A4E79"/>
<path d="M115.408 117.13C114.906 117.129 114.416 116.979 113.999 116.7C113.583 116.42 113.258 116.023 113.067 115.559C112.876 115.095 112.827 114.585 112.925 114.093C113.024 113.601 113.266 113.149 113.621 112.795C127.94 98.527 128.955 75.2421 115.932 59.7823C115.5 59.268 115.289 58.6036 115.346 57.9344C115.403 57.2653 115.723 56.646 116.236 56.2123L116.251 56.2004C116.767 55.7695 117.432 55.5607 118.102 55.62C118.771 55.6793 119.389 56.0017 119.821 56.5166C126.972 65.0081 130.671 75.8763 130.185 86.9668C129.699 98.0572 125.064 108.56 117.198 116.394C116.963 116.628 116.684 116.814 116.376 116.94C116.069 117.067 115.74 117.131 115.408 117.13ZM116.669 56.7291C116.293 57.0472 116.059 57.5017 116.018 57.9927C115.977 58.4836 116.132 58.9708 116.45 59.3471C122.892 66.9946 126.225 76.7829 125.79 86.7722C125.355 96.7616 121.183 106.223 114.101 113.281C113.922 113.452 113.78 113.657 113.681 113.883C113.583 114.11 113.531 114.353 113.528 114.6C113.525 114.847 113.571 115.092 113.664 115.321C113.757 115.55 113.894 115.758 114.069 115.933C114.243 116.108 114.45 116.246 114.679 116.34C114.907 116.434 115.152 116.481 115.399 116.479C115.646 116.477 115.89 116.426 116.117 116.328C116.344 116.231 116.549 116.089 116.72 115.911C132.644 100.045 133.775 74.149 119.294 56.9501C118.978 56.5731 118.525 56.3371 118.034 56.294C117.544 56.251 117.057 56.4044 116.68 56.7206L116.669 56.7291Z" fill="#4A4E79"/>
<path d="M71.2317 48.5181L71.1892 48.5164L71.2215 48.2529V48.1781L71.1994 47.8398L71.2487 47.8381L71.2708 47.8415L71.2317 48.1611V48.2427L71.2504 48.5164L71.2317 48.5181Z" fill="#4A4E79"/>
<path d="M96.3102 42.3386C87.7265 40.2814 78.7241 40.8343 70.4566 43.9264C70.1801 44.0224 69.9255 44.1728 69.708 44.3686C69.4904 44.5645 69.3142 44.8019 69.1898 45.0669C69.0654 45.3319 68.9952 45.619 68.9835 45.9115C68.9717 46.204 69.0186 46.4959 69.1213 46.77C69.2241 47.0442 69.3806 47.2949 69.5818 47.5076C69.7829 47.7203 70.0245 47.8907 70.2925 48.0086C70.5604 48.1264 70.8492 48.1896 71.1419 48.1941C71.4346 48.1987 71.7253 48.1447 71.9968 48.0353C79.4444 45.2493 87.5546 44.7521 95.2868 46.6073C95.8475 46.7294 96.4337 46.6271 96.92 46.3225C97.4063 46.0179 97.754 45.535 97.8889 44.9772C98.0237 44.4195 97.9349 43.8311 97.6415 43.338C97.348 42.8449 96.8732 42.4861 96.3187 42.3386H96.3102Z" fill="#4A4E79"/>
<path d="M71.23 48.5182C70.7135 48.5174 70.2094 48.3599 69.7844 48.0663C69.3594 47.7728 69.0335 47.3571 68.85 46.8743C68.7325 46.5626 68.6775 46.2309 68.6883 45.898C68.6992 45.5651 68.7755 45.2377 68.9131 44.9343C69.0506 44.631 69.2466 44.3578 69.4899 44.1303C69.7331 43.9028 70.0188 43.7255 70.3307 43.6086C78.6615 40.4807 87.7389 39.9229 96.39 42.0072C96.72 42.0792 97.0323 42.2165 97.3085 42.4108C97.5847 42.6052 97.8193 42.8527 97.9986 43.139C98.1779 43.4252 98.2982 43.7444 98.3524 44.0778C98.4067 44.4112 98.3938 44.752 98.3145 45.0803C98.2353 45.4086 98.0912 45.7178 97.8909 45.9897C97.6905 46.2617 97.4379 46.4908 97.1478 46.6638C96.8577 46.8367 96.536 46.95 96.2015 46.997C95.867 47.0439 95.5265 47.0236 95.2 46.9372C87.5373 45.0916 79.4974 45.5842 72.1174 48.3516C71.834 48.4598 71.5334 48.5162 71.23 48.5182ZM85.9622 41.4513C80.7074 41.4531 75.4957 42.3991 70.5755 44.2444C70.1686 44.3975 69.8284 44.6886 69.6141 45.0669C69.3999 45.4452 69.3252 45.8867 69.4031 46.3144C69.481 46.7421 69.7065 47.1289 70.0404 47.4074C70.3743 47.6858 70.7953 47.8383 71.23 47.8382C71.4513 47.8366 71.6706 47.7957 71.8777 47.7175C79.3845 44.9007 87.5634 44.3991 95.3581 46.2776C95.5976 46.3427 95.8478 46.3591 96.0937 46.3259C96.3397 46.2926 96.5765 46.2104 96.7901 46.0841C97.0038 45.9577 97.1899 45.7898 97.3375 45.5903C97.4851 45.3908 97.5912 45.1637 97.6495 44.9224C97.7079 44.6812 97.7172 44.4307 97.677 44.1857C97.6369 43.9408 97.548 43.7064 97.4157 43.4965C97.2834 43.2865 97.1103 43.1052 96.9066 42.9632C96.703 42.8213 96.473 42.7217 96.2302 42.6702C92.8673 41.8621 89.4209 41.453 85.9622 41.4513Z" fill="#4A4E79"/>
<path d="M57.9445 112.931C51.3073 106.271 47.2615 97.4634 46.5337 88.089C45.8058 78.7147 48.4436 69.3879 53.9733 61.7833C54.1509 61.5531 54.2811 61.29 54.3562 61.0091C54.4313 60.7283 54.45 60.4353 54.411 60.1472C54.3721 59.8591 54.2763 59.5816 54.1293 59.3308C53.9823 59.08 53.7869 58.8609 53.5546 58.6861C53.3222 58.5114 53.0575 58.3845 52.7757 58.3129C52.494 58.2412 52.2008 58.2262 51.9132 58.2687C51.6256 58.3112 51.3493 58.4104 51.1003 58.5605C50.8514 58.7106 50.6347 58.9087 50.4628 59.1432L50.4237 59.1959C44.2772 67.6468 41.3446 78.012 42.1525 88.4305C42.9605 98.849 47.456 108.638 54.8318 116.04C55.036 116.245 55.2784 116.407 55.5452 116.518C55.8121 116.628 56.0981 116.685 56.387 116.686C56.6759 116.686 56.9619 116.629 57.2289 116.519C57.4959 116.408 57.7384 116.246 57.9428 116.042C58.1472 115.838 58.3094 115.596 58.4201 115.329C58.5308 115.062 58.5878 114.776 58.588 114.487C58.5881 114.198 58.5314 113.912 58.421 113.645C58.3106 113.378 58.1487 113.136 57.9445 112.931Z" fill="#4A4E79"/>
<path d="M56.3891 117.025C56.0553 117.025 55.7247 116.96 55.4163 116.832C55.1079 116.704 54.8278 116.517 54.5922 116.28C47.157 108.821 42.6252 98.9547 41.811 88.454C40.9968 77.9534 43.9536 67.5066 50.1501 58.9902C50.1603 58.9732 50.1756 58.9545 50.1909 58.9341C50.3895 58.6636 50.6397 58.4352 50.9271 58.2621C51.2146 58.089 51.5335 57.9746 51.8655 57.9256C52.1974 57.8766 52.5358 57.894 52.861 57.9767C53.1862 58.0594 53.4917 58.2058 53.7599 58.4075C54.0281 58.6091 54.2536 58.8619 54.4234 59.1513C54.5932 59.4408 54.7039 59.761 54.7491 60.0935C54.7942 60.426 54.773 60.7641 54.6865 61.0883C54.6001 61.4125 54.4502 61.7164 54.2454 61.9822C49.3394 68.6642 46.7116 76.7464 46.7502 85.0359C46.7538 95.4024 50.8632 105.345 58.1792 112.69C58.5342 113.045 58.7758 113.497 58.8737 113.99C58.9716 114.482 58.9213 114.993 58.7292 115.457C58.5371 115.921 58.2117 116.317 57.7943 116.596C57.3769 116.875 56.8862 117.025 56.384 117.025H56.3891ZM52.2224 58.606C52.1337 58.6064 52.0451 58.6126 51.9572 58.6247C51.7157 58.6585 51.4831 58.7397 51.2731 58.8637C51.063 58.9877 50.8795 59.1521 50.7332 59.3472L50.7026 59.3914C38.0258 76.8181 39.8652 100.531 55.0733 115.801C55.4221 116.15 55.8952 116.346 56.3885 116.346C56.8819 116.346 57.3551 116.15 57.7041 115.802C58.0531 115.453 58.2492 114.98 58.2494 114.486C58.2495 113.993 58.0537 113.52 57.7049 113.171C51.0098 106.454 46.9287 97.5696 46.1946 88.1141C45.4605 78.6586 48.1215 69.2511 53.6997 61.581C53.9076 61.3058 54.0346 60.9781 54.0666 60.6347C54.0986 60.2912 54.0343 59.9457 53.8809 59.6368C53.7275 59.3279 53.4911 59.0678 53.1981 58.8857C52.9052 58.7037 52.5673 58.6068 52.2224 58.606Z" fill="#4A4E79"/>
</svg>
