<svg width="20" height="20" viewBox="0 0 20 20" fill="none" xmlns="http://www.w3.org/2000/svg">
<g clip-path="url(#clip0)">
<path d="M0.176115 3.97314L6.2417 9.99967L0.176115 16.0262C0.0664663 15.797 -5.76973e-05 15.5437 -5.76973e-05 15.2731V4.72623C-5.76973e-05 4.45564 0.0664663 4.20232 0.176115 3.97314Z" fill="#FBFBFB"/>
<path d="M1.7579 2.96875H18.2423C18.5129 2.96875 18.7662 3.03527 18.9954 3.14492L11.2429 10.8583C10.5574 11.5438 9.44275 11.5438 8.75728 10.8583L1.00482 3.14492C1.234 3.03527 1.48732 2.96875 1.7579 2.96875Z" fill="#FBFBFB"/>
<path d="M19.8238 3.97314C19.9335 4.20232 20 4.45564 20 4.72623V15.2731C20 15.5437 19.9335 15.7971 19.8238 16.0262L13.7582 9.99967L19.8238 3.97314Z" fill="#FBFBFB"/>
<path d="M7.0704 10.8286L7.92872 11.6869C9.07087 12.8291 10.9293 12.8291 12.0715 11.6869L12.9298 10.8286L18.9954 16.8551C18.7662 16.9648 18.5129 17.0313 18.2423 17.0313H1.7579C1.48732 17.0313 1.234 16.9648 1.00482 16.8551L7.0704 10.8286Z" fill="#FBFBFB"/>
</g>
<defs>
<clipPath id="clip0">
<rect width="20" height="20" fill="white" transform="matrix(-1 0 0 1 20 0)"/>
</clipPath>
</defs>
</svg>
