<svg width="12" height="16" viewBox="0 0 12 16" fill="none" xmlns="http://www.w3.org/2000/svg">
<path d="M6 -7.62939e-06C2.692 -7.62939e-06 0 2.71066 0 6.04333C0 10.7787 5.436 15.668 5.66733 15.8733C5.76267 15.958 5.88133 16 6 16C6.11867 16 6.23733 15.958 6.33267 15.874C6.564 15.668 12 10.7787 12 6.04333C12 2.71066 9.308 -7.62939e-06 6 -7.62939e-06ZM6 9.33333C4.162 9.33333 2.66667 7.83799 2.66667 5.99999C2.66667 4.16199 4.162 2.66666 6 2.66666C7.838 2.66666 9.33333 4.16199 9.33333 5.99999C9.33333 7.83799 7.838 9.33333 6 9.33333Z" fill="#4A4E79"/>
</svg>
