<svg width="20" height="20" viewBox="0 0 20 20" fill="none" xmlns="http://www.w3.org/2000/svg">
<g clip-path="url(#clip0)">
<path d="M8.28167 11.7183C6.37271 9.80934 5.94167 7.90037 5.84443 7.13554C5.81726 6.92407 5.89004 6.71198 6.04133 6.56175L7.58616 5.01761C7.8134 4.7905 7.85373 4.43657 7.6834 4.16416L5.22374 0.344852C5.0353 0.0432134 4.64838 -0.0656509 4.33029 0.0934725L0.381674 1.95313C0.124453 2.07979 -0.0268408 2.35308 0.00236378 2.6383C0.20926 4.60382 1.06616 9.43554 5.81443 14.1842C10.5627 18.9328 15.3937 19.7893 17.3603 19.9962C17.6455 20.0254 17.9188 19.8741 18.0455 19.6169L19.9051 15.6683C20.0637 15.3509 19.9555 14.965 19.6551 14.7762L15.8358 12.3173C15.5636 12.1468 15.2096 12.1868 14.9824 12.4138L13.4382 13.9586C13.288 14.1099 13.0759 14.1827 12.8644 14.1555C12.0996 14.0583 10.1906 13.6273 8.28167 11.7183Z" fill="#FBFBFB"/>
<path d="M15.862 10.6896C15.4811 10.6896 15.1724 10.3809 15.1724 9.99997C15.1691 7.14466 12.8553 4.83078 9.99996 4.82755C9.61907 4.82755 9.3103 4.51878 9.3103 4.1379C9.3103 3.75701 9.61907 3.44824 9.99996 3.44824C13.6167 3.45223 16.5477 6.3832 16.5517 9.99997C16.5517 10.3809 16.2429 10.6896 15.862 10.6896Z" fill="#FBFBFB"/>
<path d="M19.3103 10.6897C18.9294 10.6897 18.6207 10.3809 18.6207 10C18.6153 5.24113 14.7588 1.38463 9.99996 1.37931C9.61907 1.37931 9.3103 1.07054 9.3103 0.689655C9.3103 0.308769 9.61907 0 9.99996 0C15.5203 0.00608133 19.9939 4.47967 20 10C20 10.1829 19.9273 10.3583 19.798 10.4877C19.6686 10.617 19.4932 10.6897 19.3103 10.6897Z" fill="#FBFBFB"/>
</g>
<defs>
<clipPath id="clip0">
<rect width="20" height="20" fill="white"/>
</clipPath>
</defs>
</svg>
