<svg width="20" height="20" viewBox="0 0 20 20" fill="none" xmlns="http://www.w3.org/2000/svg">
<g clip-path="url(#clip0)">
<path d="M9.99993 8.57178C8.22473 8.57178 6.78564 10.0109 6.78564 11.7861C6.78564 13.5613 8.22473 15.0004 9.99993 15.0004C11.7751 15.0004 13.2142 13.5613 13.2142 11.7861C13.212 10.0118 11.7742 8.57394 9.99993 8.57178ZM9.99993 12.8575C9.4082 12.8575 8.9285 12.3778 8.9285 11.7861C8.9285 11.1943 9.4082 10.7146 9.99993 10.7146C10.5917 10.7146 11.0714 11.1943 11.0714 11.7861C11.0714 12.3778 10.5917 12.8575 9.99993 12.8575Z" fill="#FBFBFB"/>
<path d="M9.99996 12.143C10.1972 12.143 10.3571 11.9831 10.3571 11.7859C10.3571 11.5886 10.1972 11.4287 9.99996 11.4287C9.80272 11.4287 9.64282 11.5886 9.64282 11.7859C9.64282 11.9831 9.80272 12.143 9.99996 12.143Z" fill="#FBFBFB"/>
<path d="M19.8689 5.32164C18.6699 4.36485 15.3081 2.14307 9.99993 2.14307C4.69172 2.14307 1.32993 4.36485 0.131006 5.32164C0.0158266 5.41497 -0.0290603 5.57015 0.0185061 5.71057L1.20101 8.90449C1.25572 9.08464 1.44021 9.192 1.62386 9.15057L5.08029 8.35271C5.24279 8.31519 5.35768 8.1702 5.35708 8.00342V6.40699C5.35834 6.06573 5.52082 5.74514 5.79529 5.54235C7.02624 4.68431 8.50004 4.24391 9.99993 4.28592C11.4997 4.24394 12.9733 4.6842 14.2042 5.54199C14.4789 5.74482 14.6415 6.06556 14.6428 6.40699V8.00342C14.6429 8.16966 14.7576 8.31388 14.9196 8.35128L18.376 9.14914C18.5554 9.1904 18.7368 9.08849 18.7949 8.91378L19.9849 5.69949C20.0277 5.56166 19.9816 5.41171 19.8689 5.32164Z" fill="#FBFBFB"/>
<path d="M15.5802 9.23693L14.7588 9.04765C14.2717 8.93681 13.9266 8.5029 13.9284 8.00336V6.40693C13.9285 6.29186 13.8732 6.18378 13.7798 6.11658C12.6718 5.34936 11.3469 4.95802 9.99982 5.00015C8.65269 4.9581 7.32762 5.34942 6.21947 6.11658C6.1262 6.18385 6.07103 6.29193 6.07125 6.40693V8.00336C6.07301 8.5029 5.72799 8.93681 5.2409 9.04765L4.41947 9.23693L0.769826 15.0159C0.733692 15.0732 0.714387 15.1395 0.714111 15.2073V17.5001C0.714111 17.6974 0.87401 17.8573 1.07125 17.8573H18.9284C19.1256 17.8573 19.2855 17.6974 19.2855 17.5001V15.2073C19.2851 15.139 19.2656 15.0722 19.2291 15.0144L15.5802 9.23693ZM9.99982 15.7144C7.83013 15.7144 6.07125 13.9555 6.07125 11.7859C6.07125 9.61617 7.83013 7.85729 9.99982 7.85729C12.1695 7.85729 13.9284 9.61617 13.9284 11.7859C13.9258 13.9545 12.1685 15.7119 9.99982 15.7144Z" fill="#FBFBFB"/>
</g>
<defs>
<clipPath id="clip0">
<rect width="20" height="20" fill="white"/>
</clipPath>
</defs>
</svg>
