<svg width="75" height="75" viewBox="0 0 75 75" fill="none" xmlns="http://www.w3.org/2000/svg">
<path d="M30.0945 57.8989C30.1059 57.2922 29.6235 56.7913 29.0169 56.7799C28.4143 56.7687 27.9093 57.2509 27.8979 57.8575C27.8406 60.8868 27.8728 64.0419 27.9923 67.2515H12.6585C9.84828 55.7207 14.0406 44.4115 14.0841 44.2966C14.0878 44.287 14.0913 44.2772 14.0947 44.2676C16.9635 36.0207 17.575 31.2731 17.6001 31.0718C17.8251 29.22 17.1949 27.3132 15.7777 25.5573C14.7099 24.2364 14.1364 22.5881 14.1629 20.9167C14.285 13.4785 15.9587 7.24889 16.9455 4.19771C17.3492 2.95108 18.5488 2.13039 19.8619 2.20128L24.1908 2.43447C24.797 2.46655 25.3142 2.00237 25.3469 1.39656C25.3795 0.79075 24.9148 0.273261 24.309 0.240451L19.9803 0.0074128C17.6733 -0.11665 15.5653 1.32743 14.8549 3.52159C13.6034 7.39126 12.0864 13.5441 11.966 20.8814C11.9314 23.0671 12.6783 25.2182 14.0685 26.9379C15.1184 28.2387 15.5729 29.5406 15.4195 30.8032C15.4137 30.8496 14.8032 35.5404 12.0244 43.5321C11.7618 44.2296 7.36484 56.2325 10.7465 68.6389C10.8361 68.968 11.2367 70.2729 11.3449 70.5896C11.5567 71.2099 11.7858 71.82 12.0316 72.4148C12.6803 73.9852 14.1905 74.9998 15.8789 74.9998H26.2017C27.3398 74.9998 28.4407 74.5252 29.222 73.6978C29.9209 72.9575 30.3223 71.978 30.353 70.9662C30.353 70.8438 30.3564 70.728 30.3494 70.6054C30.1073 66.4015 30.0151 62.1127 30.0945 57.8989ZM27.6241 72.1896C27.2507 72.585 26.7454 72.8028 26.2014 72.8028H15.8786C15.0829 72.8028 14.3698 72.3212 14.0619 71.5761C13.7733 70.8777 13.5164 70.1659 13.2837 69.4487H28.087C28.088 69.4684 28.1511 70.6535 28.1555 70.7317C28.1868 71.2757 27.9982 71.7935 27.6241 72.1896Z" fill="#FBFBFB"/>
<path d="M49.5801 1.59119L29.3675 0.512852C28.7608 0.480188 28.2442 0.944947 28.2113 1.55076C28.1787 2.15657 28.6434 2.67421 29.2493 2.70687L45.1801 3.56476V20.6567C37.7374 22.6656 33.6682 29.8656 33.2689 30.6023C30.4259 34.9416 28.6843 42.3697 28.0917 52.6827C28.057 53.2884 28.5197 53.8076 29.1255 53.8425C29.1469 53.8436 29.1683 53.8442 29.1895 53.8442C29.7673 53.8442 30.2516 53.3929 30.2853 52.8087C30.5483 48.2289 31.0361 44.2595 31.7428 40.9165H36.162C37.097 40.9165 37.9787 40.5068 38.5813 39.7925C39.1855 39.0762 39.4411 38.1349 39.2828 37.2099C38.7835 34.2926 38.5919 30.0056 38.5186 27.2774C40.4196 25.3238 43.1016 23.3077 46.4827 22.604L49.7899 22.0778C51.3737 21.8906 52.5644 20.5536 52.5644 18.9554V4.73142C52.5644 3.05562 51.2536 1.67629 49.5801 1.59119ZM36.9019 38.3758C36.7936 38.504 36.5537 38.7193 36.1622 38.7193H32.2621C33.0244 35.8333 33.9816 33.511 35.1306 31.77C35.1502 31.7403 35.1684 31.7095 35.1851 31.678C35.1978 31.654 35.6139 30.8809 36.4066 29.7897C36.5188 32.3181 36.7277 35.3052 37.1172 37.5803C37.1841 37.971 37.011 38.2465 36.9019 38.3758ZM50.3673 18.9551C50.3673 19.4395 50.0042 19.8442 49.5226 19.8966C49.5045 19.8985 47.3772 20.2366 47.3772 20.2366L47.3773 3.67886L49.4684 3.78535C49.9724 3.81098 50.3673 4.22653 50.3673 4.73127V18.9551Z" fill="#FBFBFB"/>
<path d="M19.3433 6.92977C18.5957 9.2975 17.3373 13.9287 17.3099 18.3431C17.3053 19.0806 17.6151 19.7874 18.1601 20.2825C18.6379 20.7167 19.2607 20.9548 19.9008 20.9548C19.9878 20.9548 20.0753 20.9504 20.1627 20.9415L40.2762 18.8877C41.6024 18.7522 42.6024 17.645 42.6024 16.3119V7.71076C42.6024 6.28309 41.4408 5.1217 40.0133 5.1217H21.812C20.677 5.1217 19.6849 5.84836 19.3433 6.92977ZM40.4051 7.71076V16.3121C40.4051 16.5139 40.2537 16.6815 40.053 16.702L19.9395 18.7558C19.7879 18.7715 19.6858 18.7003 19.6378 18.6565C19.5885 18.6117 19.5061 18.5133 19.507 18.3567C19.5336 14.0769 20.8667 9.40237 21.4385 7.59138C21.4901 7.42836 21.64 7.3188 21.812 7.3188H40.0132C40.2294 7.3188 40.4051 7.49471 40.4051 7.71076Z" fill="#FBFBFB"/>
<path d="M26.182 15.7601C28.1119 15.7601 29.6821 14.1899 29.6821 12.26C29.6821 10.3301 28.1119 8.75989 26.182 8.75989C24.2521 8.75989 22.6819 10.3301 22.6819 12.26C22.6819 14.1899 24.2521 15.7601 26.182 15.7601ZM26.182 10.9571C26.9005 10.9571 27.485 11.5417 27.485 12.2602C27.485 12.9786 26.9005 13.5632 26.182 13.5632C25.4636 13.5632 24.879 12.9786 24.879 12.2602C24.879 11.5417 25.4636 10.9571 26.182 10.9571Z" fill="#FBFBFB"/>
<path d="M35.0587 15.7601C36.9886 15.7601 38.5587 14.1899 38.5587 12.26C38.5587 10.3301 36.9885 8.75989 35.0587 8.75989C33.1289 8.75989 31.5586 10.3301 31.5586 12.26C31.5586 14.1899 33.1288 15.7601 35.0587 15.7601ZM35.0587 10.9571C35.7772 10.9571 36.3617 11.5417 36.3617 12.2602C36.3617 12.9786 35.7772 13.5632 35.0587 13.5632C34.3403 13.5632 33.7557 12.9786 33.7557 12.2602C33.7557 11.5417 34.3403 10.9571 35.0587 10.9571Z" fill="#FBFBFB"/>
<path d="M61.7092 3.93859C61.2394 3.55439 60.5473 3.62411 60.1633 4.09356C59.7791 4.5633 59.8485 5.25538 60.3183 5.63943C62.2318 7.20435 63.3293 9.51774 63.3293 11.9864C63.3293 14.4044 62.2687 16.6872 60.4195 18.2493C59.956 18.6408 59.8976 19.3339 60.2891 19.7974C60.5065 20.0546 60.8166 20.187 61.1288 20.187C61.3792 20.187 61.631 20.1019 61.8372 19.9276C64.1816 17.9471 65.5263 15.0525 65.5263 11.9863C65.5264 8.85569 64.1351 5.92242 61.7092 3.93859Z" fill="#FBFBFB"/>
<path d="M59.4207 8.49319C58.951 8.10929 58.259 8.17857 57.8748 8.64831C57.4908 9.11804 57.5602 9.81013 58.03 10.1942C58.5612 10.6286 58.866 11.2709 58.866 11.9561C58.866 12.6272 58.5715 13.2609 58.0581 13.6947C57.5946 14.0863 57.5362 14.7794 57.9277 15.2428C58.1451 15.5 58.4552 15.6324 58.7674 15.6324C59.0178 15.6324 59.2696 15.5473 59.4758 15.373C60.4845 14.521 61.063 13.2755 61.063 11.956C61.063 10.6088 60.4643 9.34654 59.4207 8.49319Z" fill="#FBFBFB"/>
</svg>
