<svg width="30" height="30" viewBox="0 0 30 30" fill="none" xmlns="http://www.w3.org/2000/svg">
<g clip-path="url(#clip0)">
<path d="M29.7326 21.7089C29.652 21.5739 29.1532 20.4901 26.753 18.2624C24.2403 15.9298 24.5779 16.3085 27.6043 12.2751C29.4476 9.81869 30.1845 8.31858 29.9539 7.67728C29.7345 7.06599 28.3788 7.22725 28.3788 7.22725L23.8709 7.2535C23.8709 7.2535 23.5372 7.2085 23.2878 7.35663C23.0459 7.50289 22.8902 7.84042 22.8902 7.84042C22.8902 7.84042 22.1758 9.74181 21.2232 11.3582C19.215 14.7691 18.4105 14.9491 18.0824 14.7372C17.3192 14.244 17.5105 12.7533 17.5105 11.6957C17.5105 8.38984 18.0111 7.01161 16.5335 6.65533C16.0422 6.5372 15.6822 6.45844 14.4277 6.44532C12.8189 6.42844 11.4556 6.45094 10.685 6.82784C10.1712 7.07911 9.77552 7.63978 10.0174 7.67166C10.3156 7.71103 10.9906 7.85355 11.3488 8.34108C11.8119 8.96925 11.795 10.3831 11.795 10.3831C11.795 10.3831 12.0613 14.274 11.1744 14.7578C10.565 15.0897 9.73051 14.4128 7.93976 11.3169C7.02281 9.73243 6.32901 7.97918 6.32901 7.97918C6.32901 7.97918 6.19588 7.65291 5.95774 7.47852C5.66896 7.26663 5.26393 7.19912 5.26393 7.19912L0.977366 7.22537C0.977366 7.22537 0.334193 7.24413 0.0979259 7.52352C-0.11209 7.77291 0.0810496 8.2867 0.0810496 8.2867C0.0810496 8.2867 3.43755 16.1379 7.23658 20.0963C10.7225 23.7247 14.679 23.4866 14.679 23.4866H16.4716C16.4716 23.4866 17.0136 23.4266 17.2892 23.1284C17.5442 22.8547 17.5348 22.3409 17.5348 22.3409C17.5348 22.3409 17.4992 19.9351 18.6168 19.5807C19.7175 19.2319 21.1314 21.9058 22.6296 22.9353C23.7622 23.7135 24.6229 23.5428 24.6229 23.5428L28.63 23.4866C28.63 23.4866 30.7264 23.3572 29.7326 21.7089Z" fill="#FBFBFB"/>
</g>
<defs>
<clipPath id="clip0">
<rect width="30" height="30" fill="white"/>
</clipPath>
</defs>
</svg>
