<svg width="28" height="28" viewBox="0 0 28 28" fill="none" xmlns="http://www.w3.org/2000/svg">
<g clip-path="url(#clip0)">
<path d="M0.650468 28C0.493242 28 0.340288 27.9378 0.226854 27.8231C0.0773176 27.6719 0.0196393 27.4523 0.0758222 27.247L1.8961 20.5999C0.762834 18.5506 0.16533 16.2324 0.166185 13.8791C0.169389 6.22604 6.39736 0 14.0498 0C17.7615 0.00149536 21.2491 1.4473 23.8704 4.07059C26.4914 6.69409 27.9342 10.1815 27.9331 13.8902C27.9297 21.5435 21.7017 27.7699 14.0498 27.7699C14.0498 27.7699 14.044 27.7699 14.0438 27.7699C11.8086 27.7691 9.59273 27.2243 7.61971 26.1925L0.8015 27.9806C0.751512 27.9936 0.70067 28 0.650468 28Z" fill="#E5E5E5"/>
<path d="M0.650391 27.4042L2.5354 20.5206C1.37265 18.506 0.761047 16.2206 0.761902 13.8793C0.764893 6.55481 6.7254 0.595795 14.0497 0.595795C17.6039 0.59729 20.9401 1.98071 23.4489 4.49164C25.9575 7.00256 27.3385 10.3402 27.3372 13.89C27.334 21.2143 21.3727 27.1741 14.0497 27.1741C14.0493 27.1741 14.0499 27.1741 14.0497 27.1741H14.0439C11.8201 27.1733 9.63516 26.6155 7.6944 25.557L0.650391 27.4042ZM8.0206 23.1523L8.42413 23.3913C10.1194 24.3975 12.0632 24.9296 14.0454 24.9307H14.0497C20.1367 24.9307 25.091 19.9772 25.0936 13.8891C25.0946 10.9388 23.9471 8.16446 21.8619 6.07758C19.7765 3.99069 17.0039 2.84076 14.0537 2.83948C7.96185 2.83948 3.00772 7.79233 3.00537 13.8802C3.00452 15.9664 3.58813 17.998 4.69385 19.7561L4.9566 20.1739L3.84064 24.2481L8.0206 23.1523Z" fill="white"/>
<path d="M1.11255 26.9404L2.9324 20.2948C1.8096 18.35 1.21936 16.1435 1.22 13.8836C1.22278 6.81265 6.97714 1.06 14.0474 1.06C17.4791 1.06149 20.6999 2.39706 23.1213 4.82104C25.5433 7.24503 26.8763 10.4671 26.8751 13.8936C26.8721 20.9648 21.1175 26.718 14.0481 26.718C14.0474 26.718 14.0483 26.718 14.0481 26.718H14.0423C11.8956 26.7172 9.78607 26.1784 7.9126 25.1573L1.11255 26.9404Z" fill="#64B161"/>
<path d="M0.650391 27.4042L2.5354 20.5206C1.37265 18.506 0.761047 16.2206 0.761902 13.8793C0.764893 6.55481 6.7254 0.595795 14.0497 0.595795C17.6039 0.59729 20.9401 1.98071 23.4489 4.49164C25.9575 7.00256 27.3385 10.3402 27.3372 13.89C27.334 21.2143 21.3727 27.1741 14.0497 27.1741C14.0493 27.1741 14.0499 27.1741 14.0497 27.1741H14.0439C11.8201 27.1733 9.63516 26.6155 7.6944 25.557L0.650391 27.4042ZM8.0206 23.1523L8.42413 23.3913C10.1194 24.3975 12.0632 24.9296 14.0454 24.9307H14.0497C20.1367 24.9307 25.091 19.9772 25.0936 13.8891C25.0946 10.9388 23.9471 8.16446 21.8619 6.07758C19.7765 3.99069 17.0039 2.84076 14.0537 2.83948C7.96185 2.83948 3.00772 7.79233 3.00537 13.8802C3.00452 15.9664 3.58813 17.998 4.69385 19.7561L4.9566 20.1739L3.84064 24.2481L8.0206 23.1523Z" fill="white"/>
<path fill-rule="evenodd" clip-rule="evenodd" d="M10.7286 8.32596C10.4799 7.77311 10.218 7.762 9.98135 7.75238C9.78781 7.74405 9.56628 7.74448 9.34518 7.74448C9.12387 7.74448 8.76413 7.82779 8.45993 8.15998C8.15552 8.49216 7.29761 9.29538 7.29761 10.929C7.29761 12.5627 8.48749 14.1412 8.65347 14.3629C8.81946 14.5845 10.9503 18.0439 14.3249 19.3748C17.1296 20.4809 17.7002 20.2609 18.309 20.2055C18.9178 20.1502 20.2733 19.4023 20.5499 18.6271C20.8268 17.8518 20.8268 17.1875 20.7437 17.0484C20.6606 16.9102 20.4393 16.8271 20.1073 16.6611C19.7753 16.4951 18.143 15.6917 17.8386 15.581C17.5342 15.4702 17.3129 15.415 17.0916 15.7474C16.8701 16.0794 16.2343 16.8271 16.0406 17.0484C15.8468 17.2704 15.653 17.2981 15.3211 17.1319C14.9891 16.9655 13.9197 16.6152 12.6512 15.484C11.6643 14.6041 10.9978 13.5172 10.804 13.1848C10.6105 12.8528 10.8008 12.6888 10.9499 12.5074C11.2184 12.1808 11.669 11.5935 11.7796 11.3722C11.8903 11.1505 11.835 10.9567 11.7521 10.7905C11.669 10.6245 11.0236 8.98264 10.7286 8.32596Z" fill="white"/>
</g>
<defs>
<clipPath id="clip0">
<rect width="28" height="28" fill="white"/>
</clipPath>
</defs>
</svg>
